<?xml version="1.0" standalone="no"?>
  <!DOCTYPE svg PUBLIC "-//W3C//DTD SVG 1.1//EN" "http://www.w3.org/Graphics/SVG/1.1/DTD/svg11.dtd" >
  <svg>
  <metadata>
  Created by font-carrier
  </metadata>
  <defs>
  <font id="TriodPostnaja" horiz-adv-x="1339" vert-adv-y="1339" >
    <font-face
      
      font-family="TriodPostnaja"
      
      font-weight="400"
      
      font-stretch="normal"
      
      units-per-em="1024"
      
      ascent="1171"
      
      descent="-309"
      
    />
      <missing-glyph />

      

      
      <glyph glyph-name="uni21" unicode="&#x21;" d="M80 717L191 717L171 164L100 164L80 717M100 0Q90 0 90 10L90 82Q90 92 100 92L171 92Q181 92 181 82L181 10Q181 0 171 0L100 0Z"  horiz-adv-x="268" vert-adv-y="1024"  />

      
      <glyph glyph-name="uni22" unicode="&#x22;" d="M57 717L143 717L123 512L78 512L57 717M209 717L295 717L274 512L229 512L209 717Z"  horiz-adv-x="352" vert-adv-y="1024"  />

      
      <glyph glyph-name="uni23" unicode="&#x23;" d="M178 717L221 717L199 553L299 553L322 717L365 717L342 553L393 553L393 449L328 449L303 268L354 268L354 164L289 164L266 0L223 0L246 164L145 164L123 0L80 0L102 164L51 164L51 268L117 268L141 449L90 449L90 553L156 553L178 717M160 268L260 268L285 449L184 449L160 268Z"  horiz-adv-x="443" vert-adv-y="1024"  />

      
      <glyph glyph-name="uni24" unicode="&#x24;" d="M266 702L305 702L305 629Q393 625 435 573Q477 521 477 454Q477 440 428 440Q408 440 391.50 444Q375 448 375 454Q375 594 305 604L305 362Q413 362 461.50 317.50Q510 273 510 200Q510 107 461 48.50Q412-10 329-10Q316-10 305-7L305-72L266-72L266 13Q263 15 253 22.50Q243 30 238.50 32.50Q234 35 225 40Q216 45 208 46.50Q200 48 191 48Q182 48 155 13Q128-22 116-22Q96-22 73.50 0Q51 22 51 48Q51 60 78 94.50Q105 129 124 129Q142 129 162.50 119.50Q183 110 196.50 100Q210 90 233 71Q256 52 266 44L266 339Q188 343 145.50 381Q103 419 103 476Q103 556 143.50 590Q184 624 266 628L266 702M266 371L266 601Q206 579 206 475Q206 443 221.50 413.50Q237 384 266 371M305 337L305 20Q320 14 335 14Q364 14 386 61.50Q408 109 408 177Q408 322 305 337Z"  horiz-adv-x="570" vert-adv-y="1024"  />

      
      <glyph glyph-name="uni25" unicode="&#x25;" d="M604 657L654 639L150 59L99 78L604 657M143.50 584.50Q143.50 584.50 134.25 567.75Q125 551 125 502Q125 453 143.50 419Q162 385 188 385Q214 385 233 419Q252 453 252 502Q252 551 233 584.50Q214 618 188 618Q162 618 143.50 584.50M87 400.50Q87 400.50 66 421.75Q45 443 45 502Q45 561 87 603Q129 645 188 645Q247 645 289.50 603Q332 561 332 502Q332 443 289.50 400.50Q247 358 188 358Q129 358 87 400.50M543 298Q543 298 533.50 281Q524 264 524 215Q524 166 543 132Q562 98 588 98Q614 98 632.50 132Q651 166 651 215Q651 264 632.50 298Q614 332 588 332Q562 332 543 298M486.50 114Q486.50 114 465.25 135Q444 156 444 215Q444 274 486.50 316Q529 358 588 358Q647 358 689 316Q731 274 731 215Q731 156 689 114Q647 72 588 72Q529 72 486.50 114Z"  horiz-adv-x="776" vert-adv-y="1024"  />

      
      <glyph glyph-name="uni26" unicode="&#x26;" d="M271 248Q207 248 181 217.50Q155 187 155 132Q155 76 175 45.50Q195 15 225 15Q258 15 284.50 26.50Q311 38 327 52.50Q343 67 372 78.50Q401 90 438 90Q458 90 482 70.50Q506 51 506 38Q506 16 483.50-2Q461-20 441-20Q429-20 404 5.50Q379 31 370 31Q356 31 344.50 26.50Q333 22 319 13.50Q305 5 295 1L295-72L248-72L248-9Q246-9 240-9.50Q234-10 231-10Q52-10 52 130Q52 227 175 263Q132 276 108.50 309.50Q85 343 85 383Q85 515 248 523L248 584L295 584L295 523Q379 517 419.50 471Q460 425 460 364Q460 352 408 352Q357 352 357 364Q357 438 337 469Q317 500 271 500Q232 500 209.50 474.50Q187 449 187 398Q187 349 211 313.50Q235 278 284 278Q312 278 330.50 281.50Q349 285 357 288.50Q365 292 368 292Q377 292 392 281Q407 270 407 264Q407 258 391.50 245.50Q376 233 370 233Q364 233 337.50 240.50Q311 248 271 248Z"  horiz-adv-x="569" vert-adv-y="1024"  />

      
      <glyph glyph-name="uni27" unicode="&#x27;" d="M57 717L143 717L123 512L78 512L57 717Z"  horiz-adv-x="200" vert-adv-y="1024"  />

      
      <glyph glyph-name="uni28" unicode="&#x28;" d="M285 702Q244 702 211 604.50Q178 507 178 358Q178 208 211 111Q244 14 285 14L285-10Q192-10 129 94.50Q66 199 66 358Q66 517 129 622Q192 727 285 727L285 702Z"  horiz-adv-x="345" vert-adv-y="1024"  />

      
      <glyph glyph-name="uni29" unicode="&#x29;" d="M56 14Q97 14 130 111.50Q163 209 163 358Q163 508 130 605Q97 702 56 702L56 727Q149 727 212 622Q275 517 275 358Q275 199 212 94.50Q149-10 56-10L56 14Z"  horiz-adv-x="342" vert-adv-y="1024"  />

      
      <glyph glyph-name="uni2a" unicode="&#x2a;" d="M45 513L72 595L260 512L240 717L326 717L305 512L494 595L520 513L319 469L456 315L386 265L283 442L179 265L110 315L246 469L45 513Z"  horiz-adv-x="565" vert-adv-y="1024"  />

      
      <glyph glyph-name="uni2b" unicode="&#x2b;" d="M227 326L227 198L172 198L172 326L44 326L44 381L172 381L172 509L227 509L227 381L355 381L355 326L227 326Z"  horiz-adv-x="413" vert-adv-y="1024"  />

      
      <glyph glyph-name="uni2c" unicode="&#x2c;" d="M146 72Q146 22 128.50-26Q111-74 97-94Q83-114 72-125L47-125Q70-74 70-34Q70-22 57.50 18Q45 58 45 92Q45 102 55 102L136 102Q146 102 146 92L146 72Z"  horiz-adv-x="192" vert-adv-y="1024"  />

      
      <glyph glyph-name="uni2d" unicode="&#x2d;" d="M33 381L303 381L303 326L33 326L33 381Z"  horiz-adv-x="359" vert-adv-y="1024"  />

      
      <glyph glyph-name="uni2e" unicode="&#x2e;" d="M55 0Q45 0 45 10L45 92Q45 102 55 102L136 102Q146 102 146 92L146 10Q146 0 136 0L55 0Z"  horiz-adv-x="191" vert-adv-y="1024"  />

      
      <glyph glyph-name="uni2f" unicode="&#x2f;" d="M314 717L368 717L91 0L38 0L314 717Z"  horiz-adv-x="428" vert-adv-y="1024"  />

      
      <glyph glyph-name="uni30" unicode="&#x30;" d="M330 703Q287 703 259 679.50Q231 656 217 607.50Q203 559 197.50 501Q192 443 192 358Q192 290 195 241Q198 192 207 147Q216 102 231 74Q246 46 271 30Q296 14 330 14Q372 14 400 37.50Q428 61 442.50 109.50Q457 158 462.50 216Q468 274 468 359Q468 444 462.50 502.50Q457 561 442.50 609Q428 657 400 680Q372 703 330 703M130 628Q130 628 163 678Q196 728 330 728Q464 728 530 627.50Q596 527 596 358Q596 189 530 89.50Q464-10 330-10Q196-10 130 90Q64 190 64 359Q64 528 130 628Z"  horiz-adv-x="662" vert-adv-y="1024"  />

      
      <glyph glyph-name="uni31" unicode="&#x31;" d="M254 717L254 88Q254 44 265 34Q276 24 325 24L325 0L61 0L61 24Q110 24 121 34Q132 44 132 88L132 628Q132 672 121 682.50Q110 693 61 693L61 717L254 717Z"  horiz-adv-x="379" vert-adv-y="1024"  />

      
      <glyph glyph-name="uni32" unicode="&#x32;" d="M542 0L79 0L79 115Q79 175 90.50 218Q102 261 122 285Q142 309 167.50 324.50Q193 340 221 347.50Q249 355 277 361.50Q305 368 330.50 378Q356 388 376 405.50Q396 423 407.50 455.50Q419 488 419 536Q419 606 388 654Q357 702 311 702Q254 702 228 657Q202 612 202 512Q202 498 140 498Q80 498 80 512Q80 552 92.50 589Q105 626 130.50 657.50Q156 689 202.50 708Q249 727 311 727Q422 727 481 671.50Q540 616 540 515Q540 463 528.50 429Q517 395 497.50 379Q478 363 452.50 355Q427 347 398.50 344Q370 341 342 336.50Q314 332 288.50 318Q263 304 243.50 279Q224 254 212.50 206.50Q201 159 201 90L201 25L342 25Q386 25 425 79Q464 133 464 182L488 182Q488 144 502 104Q514 65 528 45L542 25L542 0Z"  horiz-adv-x="611" vert-adv-y="1024"  />

      
      <glyph glyph-name="uni33" unicode="&#x33;" d="M312 378Q262 378 229 365Q196 352 189 352Q181 352 162 369Q143 386 143 393Q143 401 161.50 415.50Q180 430 192 430Q195 430 205.50 424Q216 418 239 412Q262 406 297 406Q358 406 389 451Q420 496 420 559Q420 626 390.50 664Q361 702 313 702Q256 702 229.50 656.50Q203 611 203 512Q203 498 142 498Q81 498 81 512Q81 552 93.50 589Q106 626 132 657.50Q158 689 204.50 708Q251 727 313 727Q428 727 484.50 682Q541 637 541 539Q541 428 432 392Q510 368 546 312.50Q582 257 582 190Q582 90 525.50 40Q469-10 362-10Q315-10 281 11.50Q247 33 214 33Q202 33 171.50 4Q141-25 126-25Q101-25 73.50-0.50Q46 24 46 53Q46 65 76 94Q106 123 130 123Q154 123 181.50 107Q209 91 231.50 72.50Q254 54 291 38Q328 22 370 22Q407 22 433.50 69.50Q460 117 460 193Q460 271 425 324.50Q390 378 312 378Z"  horiz-adv-x="644" vert-adv-y="1024"  />

      
      <glyph glyph-name="uni34" unicode="&#x34;" d="M50 215Q50 217 60 250Q70 283 84 336Q98 389 112 450.50Q126 512 136 584.50Q146 657 146 717L271 717Q271 572 185 228L371 228L371 717L493 717L493 228L543 228L543 204L493 204L493 88Q493 44 503.50 34Q514 24 563 24L563 0L300 0L300 24Q349 24 360 34Q371 44 371 88L371 204L67 204Q50 204 50 215Z"  horiz-adv-x="626" vert-adv-y="1024"  />

      
      <glyph glyph-name="uni35" unicode="&#x35;" d="M224 692L224 441L347 441Q416 441 467 420.50Q518 400 545.50 366.50Q573 333 585.50 296.50Q598 260 598 220Q598 116 540 53Q482-10 378-10Q330-10 296 11.50Q262 33 230 33Q218 33 187.50 4Q157-25 142-25Q117-25 89.50-0.50Q62 24 62 53Q62 65 92 94Q122 123 146 123Q170 123 197.50 107Q225 91 247.50 72.50Q270 54 307 38Q344 22 386 22Q422 22 449 71Q476 120 476 196Q476 234 468.50 269.50Q461 305 444 339Q427 373 394 393.50Q361 414 316 414L103 414L103 717L581 717L581 692Q575 684 566 670Q557 656 542 614.50Q527 573 527 535L503 535Q503 589 469 640.50Q435 692 381 692L224 692Z"  horiz-adv-x="672" vert-adv-y="1024"  />

      
      <glyph glyph-name="uni36" unicode="&#x36;" d="M323 419Q444 419 506 358.50Q568 298 568 204Q568 110 506 50Q444-10 323-10Q202-10 139 50.50Q76 111 76 205Q76 465 181.50 596Q287 727 507 727L507 702Q375 702 304 627.50Q233 553 210 400Q265 419 323 419M224 347Q224 347 211 323.50Q198 300 198 204Q198 108 223.50 61Q249 14 323 14Q396 14 421 61.50Q446 109 446 205Q446 301 421 347.50Q396 394 323 394Q250 394 224 347Z"  horiz-adv-x="640" vert-adv-y="1024"  />

      
      <glyph glyph-name="uni37" unicode="&#x37;" d="M490 717L490 692L489 692L382 383L443 383L443 358L374 358L250 0L111 0L238 358L170 358L170 383L246 383L355 692L227 692Q173 692 139 640.50Q105 589 105 535L81 535Q81 573 68 612Q56 652 42 672L28 692L28 717L490 717Z"  horiz-adv-x="550" vert-adv-y="1024"  />

      
      <glyph glyph-name="uni38" unicode="&#x38;" d="M142.50 680.50Q142.50 680.50 172.75 703.75Q203 727 313 727Q423 727 483.50 680Q544 633 544 560Q544 506 509.50 465.50Q475 425 410 407Q484 385 521.50 330.50Q559 276 559 204Q559 111 496.50 50.50Q434-10 313-10Q192-10 129.50 50.50Q67 111 67 205Q67 276 105 330.50Q143 385 217 407Q151 425 116.50 465.50Q82 506 82 561Q82 634 142.50 680.50M313 702Q246 702 225 669Q204 636 204 560Q204 484 225 451.50Q246 419 313 419Q379 419 400.50 452Q422 485 422 561Q422 637 400.50 669.50Q379 702 313 702M411.50 347.50Q411.50 347.50 398.75 370.75Q386 394 313 394Q240 394 214 347Q188 300 188 204Q188 108 213.50 61Q239 14 313 14Q386 14 411.50 61.50Q437 109 437 205Q437 301 411.50 347.50Z"  horiz-adv-x="618" vert-adv-y="1024"  />

      
      <glyph glyph-name="uni39" unicode="&#x39;" d="M301 298Q180 298 117.50 358.50Q55 419 55 513Q55 606 117.50 666.50Q180 727 301 727Q422 727 485 666.50Q548 606 548 512Q548 252 442.50 121Q337-10 117-10L117 14Q249 14 320 88.50Q391 163 414 316Q362 298 301 298M400 370Q400 370 413 393.50Q426 417 426 513Q426 609 400.50 655.50Q375 702 301 702Q228 702 202.50 655Q177 608 177 512Q177 416 202.50 369.50Q228 323 301 323Q374 323 400 370Z"  horiz-adv-x="601" vert-adv-y="1024"  />

      
      <glyph glyph-name="uni3a" unicode="&#x3a;" d="M55 20Q45 20 45 30L45 112Q45 122 55 122L136 122Q146 122 146 112L146 30Q146 20 136 20L55 20M55 307Q45 307 45 317L45 399Q45 409 55 409L136 409Q146 409 146 399L146 317Q146 307 136 307L55 307Z"  horiz-adv-x="221" vert-adv-y="1024"  />

      
      <glyph glyph-name="uni3b" unicode="&#x3b;" d="M146 92Q146 42 128.50-6Q111-54 97-74Q83-94 72-105L47-105Q70-54 70-14Q70-2 57.50 38Q45 78 45 112Q45 122 55 122L136 122Q146 122 146 112L146 92M55 307Q45 307 45 317L45 399Q45 409 55 409L136 409Q146 409 146 399L146 317Q146 307 136 307L55 307Z"  horiz-adv-x="227" vert-adv-y="1024"  />

      
      <glyph glyph-name="uni3c" unicode="&#x3c;" d="M306 92L248 35L41 276L248 518L306 461L92 276L306 92Z"  horiz-adv-x="347" vert-adv-y="1024"  />

      
      <glyph glyph-name="uni3d" unicode="&#x3d;" d="M52 319L443 319L443 264L52 264L52 319M52 453L443 453L443 397L52 397L52 453Z"  horiz-adv-x="504" vert-adv-y="1024"  />

      
      <glyph glyph-name="uni3e" unicode="&#x3e;" d="M41 461L99 518L306 276L99 35L41 92L255 276L41 461Z"  horiz-adv-x="347" vert-adv-y="1024"  />

      
      <glyph glyph-name="uni3f" unicode="&#x3f;" d="M151 0Q147 0 143.50 3Q140 6 140 10L140 82Q140 86 143.50 89Q147 92 151 92L221 92Q231 92 231 82L231 10Q231 0 221 0L151 0M126 181Q126 266 155 316Q184 366 267 416Q313 444 313 566Q313 622 293 662Q273 702 237 702Q192 702 173 674Q154 646 154 582Q154 570 100 570Q51 570 51 582Q51 641 96.50 684Q142 727 237 727Q328 727 381.50 684Q435 641 435 567Q435 486 322 416Q277 387 262 338.50Q247 290 247 181L126 181Z"  horiz-adv-x="486" vert-adv-y="1024"  />

      
      <glyph glyph-name="uni40" unicode="&#x40;" d="M474-10L423-10Q271-10 163.50 82Q56 174 56 305Q56 398 111 471Q166 544 248.50 580Q331 616 423 616Q565 616 666 531Q767 446 767 305Q767 267 764 238.50Q761 210 750 179Q739 148 720.50 128Q702 108 669 95Q636 82 590 82Q520 82 492 101.50Q464 121 457 154L447 197Q399 145 322 145Q276 145 257 169.50Q238 194 238 226Q238 317 399 435L384 512L452 512Q467 512 470 500L540 154Q548 106 594 106Q633 106 648 156Q663 206 663 305Q663 415 597 503.50Q531 592 423 592Q314 592 237.50 502Q161 412 161 305Q161 184 238 99Q315 14 423 14L474 14L474-10M441 227L403 416Q314 349 314 279Q314 251 330 225.50Q346 200 379 200Q420 200 441 227Z"  horiz-adv-x="823" vert-adv-y="1024"  />

      
      <glyph glyph-name="uni41" unicode="&#x41;" d="M529 88Q529 44 540 34Q551 24 600 24L600 0L337 0L337 24Q386 24 397 34Q408 44 408 88L408 377Q329 262 227 262Q266 236 266 189Q266 133 214 110L214 102Q214 58 233 41Q252 24 297 24L297 0L61 0L61 24Q106 24 124.50 41Q143 58 143 102L143 109Q119 119 104 140.50Q89 162 89 189Q89 218 107 241.50Q125 265 152 273Q87 296 87 370Q87 421 122.50 470.50Q158 520 215 558.50Q272 597 316.50 620.50Q361 644 406 663Q403 683 389.50 688Q376 693 337 693L337 717L600 717L600 693Q551 693 540 682.50Q529 672 529 628L529 88M408 424L408 628L408 632Q377 620 348 603.50Q319 587 283.50 560.50Q248 534 226.50 497Q205 460 205 418Q205 324 285 324Q337 324 408 424Z"  horiz-adv-x="661" vert-adv-y="1024"  />

      
      <glyph glyph-name="uni42" unicode="&#x42;" d="M132 88L132 629Q132 673 121 683Q110 693 61 693L61 717L623 717L623 693Q574 693 563 683Q552 673 552 629L552 462Q440 462 372 442.50Q304 423 254 368L254 359Q304 304 372 284.50Q440 265 552 265L552 88Q552 44 563 34Q574 24 623 24L623 0L61 0L61 24Q110 24 121 34Q132 44 132 88M430 241Q321 254 254 310L254 88Q254 44 265 34Q276 24 325 24L359 24Q408 24 419 34Q430 44 430 88L430 241M254 417Q321 473 430 486L430 629Q430 673 419 683Q408 693 359 693L325 693Q276 693 265 683Q254 673 254 629L254 417Z"  horiz-adv-x="683" vert-adv-y="1024"  />

      
      <glyph glyph-name="uni43" unicode="&#x43;" d="M182 358Q182 272 187.50 214.50Q193 157 207 108.50Q221 60 249 37Q277 14 319 14Q389 14 420 59.50Q451 105 451 195Q451 239 440 249.50Q429 260 380 260L380 284L643 284L643 260Q633 260 625.50 259.50Q618 259 611.50 259Q605 259 601 257Q597 255 593.50 254Q590 253 587.50 249Q585 245 583.50 243Q582 241 580.50 234.50Q579 228 578 224.50Q577 221 575 211Q573 201 572 195Q549 87 493 38.50Q437-10 317-10Q183-10 118.50 89.50Q54 189 54 359Q54 528 118.50 628Q183 728 317 728Q438 728 494.50 679Q551 630 572 523Q581 477 586 470Q596 458 643 458L643 434L380 434L380 458Q429 458 440 468.50Q451 479 451 523Q451 613 420 658Q389 703 319 703Q277 703 249 679.50Q221 656 207 607.50Q193 559 187.50 501Q182 443 182 358Z"  horiz-adv-x="701" vert-adv-y="1024"  />

      
      <glyph glyph-name="uni44" unicode="&#x44;" d="M254 628L254 88Q254 44 265 34.50Q276 25 325 25Q403 25 451 113.50Q499 202 499 341Q499 510 452 601Q405 692 325 692Q276 692 265 682Q254 672 254 628M325 717Q487 717 557 623.50Q627 530 627 341Q627 171 556.50 85.50Q486 0 325 0L61 0L61 24Q110 24 121 34Q132 44 132 88L132 628Q132 672 121 682.50Q110 693 61 693L61 717L325 717Z"  horiz-adv-x="693" vert-adv-y="1024"  />

      
      <glyph glyph-name="uni45" unicode="&#x45;" d="M574 128Q558 98 550 84Q542 70 522.50 48Q503 26 481.50 16Q460 6 423.50-2Q387-10 339-10Q204-10 135 90.50Q66 191 66 359Q66 526 135 627Q204 728 339 728Q387 728 423.50 720Q460 712 482 701.50Q504 691 523 670Q542 649 551 633.50Q560 618 575 589Q597 545 654 545L654 521L391 521L391 545Q441 545 456.50 556Q472 567 472 589Q472 631 438.50 667Q405 703 341 703Q267 703 233.50 631Q200 559 195 422Q254 470 332 470Q437 470 483 450.50Q529 431 555 377Q562 361 565.50 355.50Q569 350 579 336Q589 322 604 316Q619 310 639 310L639 287L376 287L376 310Q414 310 433.50 317Q453 324 457 332.50Q461 341 461 357Q461 385 432 414Q403 443 334 443Q256 443 194 383L194 358Q194 188 226.50 101Q259 14 341 14Q405 14 438.50 50Q472 86 472 128Q472 151 456.50 162Q441 173 391 173L391 197L654 197L654 173Q596 173 574 128Z"  horiz-adv-x="720" vert-adv-y="1024"  />

      
      <glyph glyph-name="uni46" unicode="&#x46;" d="M325 0L61 0L61 24Q110 24 121 34Q132 44 132 88L132 627Q132 671 121 681.50Q110 692 61 692L61 717L524 717L524 692Q518 684 509 670Q500 656 485.50 614.50Q471 573 471 535L446 535Q446 589 412.50 640.50Q379 692 325 692Q276 692 265 681.50Q254 671 254 627L254 371L453 371L453 346L254 346L254 88Q254 44 265 34Q276 24 325 24L325 0Z"  horiz-adv-x="584" vert-adv-y="1024"  />

      
      <glyph glyph-name="uni47" unicode="&#x47;" d="M451 523Q451 613 420 658Q389 703 319 703Q277 703 249 679.50Q221 656 207 607.50Q193 559 187.50 501Q182 443 182 358Q182 272 187.50 214.50Q193 157 207 108.50Q221 60 249 37Q277 14 319 14Q389 14 420 59.50Q451 105 451 195Q451 239 440 249.50Q429 260 380 260L380 284L643 284L643 260Q633 260 625.50 259.50Q618 259 611.50 259Q605 259 601 257Q597 255 593.50 254Q590 253 587.50 249Q585 245 583.50 243Q582 241 580.50 234.50Q579 228 578 224.50Q577 221 575 211Q573 201 572 195Q549 87 493 38.50Q437-10 317-10Q183-10 118.50 89.50Q54 189 54 359Q54 528 118.50 628Q183 728 317 728Q438 728 494.50 679Q551 630 572 523L451 523Z"  horiz-adv-x="691" vert-adv-y="1024"  />

      
      <glyph glyph-name="uni48" unicode="&#x48;" d="M579 88Q579 44 589.50 34Q600 24 649 24L649 0L386 0L386 24Q435 24 446 34Q457 44 457 88L457 347L254 347L254 88Q254 44 265 34Q276 24 325 24L325 0L61 0L61 24Q110 24 121 34Q132 44 132 88L132 628Q132 672 121 682.50Q110 693 61 693L61 717L325 717L325 693Q276 693 265 682.50Q254 672 254 628L254 372L457 372L457 628Q457 672 446 682.50Q435 693 386 693L386 717L649 717L649 693Q601 693 590 683Q579 673 579 628L579 88Z"  horiz-adv-x="710" vert-adv-y="1024"  />

      
      <glyph glyph-name="uni49" unicode="&#x49;" d="M254 88Q254 44 265 34Q276 24 325 24L325 0L61 0L61 24Q110 24 121 34Q132 44 132 88L132 628Q132 672 121 682.50Q110 693 61 693L61 717L325 717L325 693Q276 693 265 682.50Q254 672 254 628L254 88Z"  horiz-adv-x="386" vert-adv-y="1024"  />

      
      <glyph glyph-name="uni4a" unicode="&#x4a;" d="M443 628Q443 673 432 683Q421 693 373 693L373 717L636 717L636 693Q587 693 576 682.50Q565 672 565 628L565 338Q565 238 556.50 176.50Q548 115 523.50 70.50Q499 26 455 8Q411-10 341-10Q235-10 179 40Q123 90 102 195Q101 201 99 211Q97 221 96.50 224.50Q96 228 94.50 234.50Q93 241 91.50 243Q90 245 87.50 249Q85 253 81.50 254Q78 255 74 257Q70 259 63.50 259Q57 259 49.50 259.50Q42 260 32 260L32 284L279 284L279 260Q245 260 234.50 249Q224 238 224 195Q224 14 339 14Q404 14 423.50 73.50Q443 133 443 290L443 628Z"  horiz-adv-x="696" vert-adv-y="1024"  />

      
      <glyph glyph-name="uni4b" unicode="&#x4b;" d="M132 628Q132 672 121 682.50Q110 693 61 693L61 717L325 717L325 693Q276 693 265 682.50Q254 672 254 628L254 371L262 371Q353 371 405 451Q457 531 457 628Q457 672 446 682.50Q435 693 386 693L386 717L649 717L649 693Q639 693 631.50 692.50Q624 692 617.50 692Q611 692 607 690Q603 688 599.50 687Q596 686 593.50 682Q591 678 589.50 676Q588 674 586.50 667.50Q585 661 584.50 657.50Q584 654 582 644Q580 634 579 628Q570 580 556.50 542Q543 504 519.50 465.50Q496 427 457 399.50Q418 372 366 358Q418 344 457 316.50Q496 289 519.50 251Q543 213 556.50 175Q570 137 579 89Q580 83 582 73Q584 63 584.50 59.50Q585 56 586.50 49.50Q588 43 589.50 41Q591 39 593.50 35Q596 31 599.50 30Q603 29 607 27Q611 25 617.50 25Q624 25 631.50 24.50Q639 24 649 24L649 0L386 0L386 24Q435 24 446 34.50Q457 45 457 89Q457 186 405 266Q353 346 262 346L254 346L254 88Q254 44 265 34Q276 24 325 24L325 0L61 0L61 24Q110 24 121 34Q132 44 132 88L132 628Z"  horiz-adv-x="709" vert-adv-y="1024"  />

      
      <glyph glyph-name="uni4c" unicode="&#x4c;" d="M325 717L325 693Q276 693 265 683Q254 673 254 629L254 90Q254 46 265 35.50Q276 25 325 25Q379 25 412.50 76.50Q446 128 446 182L471 182Q471 144 484.50 104.50Q498 65 511 45L524 25L524 0L61 0L61 25Q110 25 121 35.50Q132 46 132 90L132 629Q132 673 121 683Q110 693 61 693L61 717L325 717Z"  horiz-adv-x="562" vert-adv-y="1024"  />

      
      <glyph glyph-name="uni4d" unicode="&#x4d;" d="M552 88Q558 43 568.50 33.50Q579 24 627 24L627 0L364 0L364 24Q405 24 418.50 30Q432 36 432 60Q432 77 430 88L369 555Q348 533 327.50 500.50Q307 468 282 412.50Q257 357 242 272.50Q227 188 227 88Q227 44 238 34Q249 24 298 24L298 0L35 0L35 24Q84 24 94.50 34Q105 44 105 88Q105 202 121 264.50Q137 327 189 399Q241 471 364 595L359 628Q353 674 342.50 683.50Q332 693 285 693L285 717L548 717L548 693Q505 693 492.50 686Q480 679 480 651Q480 637 481 628L515 369Q571 485 694 583L688 628Q682 673 671.50 683Q661 693 613 693L613 717L877 717L877 693Q834 693 821.50 686Q809 679 809 651Q809 637 810 628L881 88Q887 43 897 33.50Q907 24 955 24L955 0L692 0L692 24Q734 24 747.50 30Q761 36 761 60Q761 77 759 88L699 542Q574 432 530 251L552 88Z"  horiz-adv-x="999" vert-adv-y="1024"  />

      
      <glyph glyph-name="uni4e" unicode="&#x4e;" d="M579 88Q579 44 589.50 34Q600 24 649 24L649 0L386 0L386 24Q435 24 446 34Q457 44 457 88L457 218L254 461L254 88Q254 44 265 34Q276 24 325 24L325 0L61 0L61 24Q110 24 121 34Q132 44 132 88L132 628Q132 672 121 682.50Q110 693 61 693L61 717L325 717L325 693Q276 693 265 682.50Q254 672 254 628L254 510L457 269L457 628Q457 672 446 682.50Q435 693 386 693L386 717L649 717L649 693Q601 693 590 683Q579 673 579 628L579 88Z"  horiz-adv-x="710" vert-adv-y="1024"  />

      
      <glyph glyph-name="uni4f" unicode="&#x4f;" d="M317 703Q274 703 246 679.50Q218 656 204 607.50Q190 559 184.50 501Q179 443 179 358Q179 290 182 241Q185 192 194 147Q203 102 218 74Q233 46 258 30Q283 14 317 14Q359 14 387 37.50Q415 61 429.50 109.50Q444 158 449.50 216Q455 274 455 359Q455 444 449.50 502.50Q444 561 429.50 609Q415 657 387 680Q359 703 317 703M117 628Q117 628 150 678Q183 728 317 728Q451 728 517 627.50Q583 527 583 358Q583 189 517 89.50Q451-10 317-10Q183-10 117 90Q51 190 51 359Q51 528 117 628Z"  horiz-adv-x="633" vert-adv-y="1024"  />

      
      <glyph glyph-name="uni50" unicode="&#x50;" d="M254 336L254 88Q254 44 265 34Q276 24 325 24L325 0L61 0L61 24Q110 24 121 34Q132 44 132 88L132 452Q132 727 344 727Q457 727 504 679.50Q551 632 551 532Q551 430 503.50 376.50Q456 323 344 323Q293 323 254 336M254 525Q254 431 274.50 389Q295 347 344 347Q429 347 429 532Q429 623 408.50 662.50Q388 702 344 702Q301 702 277.50 664Q254 626 254 525Z"  horiz-adv-x="591" vert-adv-y="1024"  />

      
      <glyph glyph-name="uni51" unicode="&#x51;" d="M131 628Q131 628 164 678Q197 728 331 728Q465 728 530.50 628Q596 528 596 358Q596 206 543 109.50Q490 13 380-6Q381-32 389-58Q397-84 407-84Q430-84 448.50-72.50Q467-61 479-46.50Q491-32 511.50-20.50Q532-9 557-9Q577-9 601-28.50Q625-48 625-61Q625-83 602.50-101.50Q580-120 560-120Q548-120 522.50-94.50Q497-69 488-69Q479-69 456-89.50Q433-110 416-110Q282-110 278-6Q170 14 117.50 110.50Q65 207 65 359Q65 528 131 628M331 703Q288 703 260 679.50Q232 656 218 607.50Q204 559 198.50 501Q193 443 193 358Q193 290 196 241Q199 192 208 147Q217 102 232 74Q247 46 272 30Q297 14 331 14Q373 14 401 37.50Q429 61 443 109.50Q457 158 462.50 216Q468 274 468 359Q468 445 462.50 502.50Q457 560 443 608.50Q429 657 401 680Q373 703 331 703Z"  horiz-adv-x="677" vert-adv-y="1024"  />

      
      <glyph glyph-name="uni52" unicode="&#x52;" d="M325 0L61 0L61 24Q110 24 121 34Q132 44 132 88L132 629Q132 673 121 683Q110 693 61 693L61 717L623 717L623 693Q574 693 563 683Q552 673 552 629L552 462Q442 462 374.50 443Q307 424 257 371Q323 370 375.50 353.50Q428 337 461.50 310.50Q495 284 520.50 246Q546 208 559 171Q572 134 581 89Q582 83 584 73Q586 63 586.50 59.50Q587 56 588.50 49.50Q590 43 591.50 41Q593 39 595.50 35Q598 31 601.50 30Q605 29 609 27Q613 25 619.50 25Q626 25 633.50 24.50Q641 24 651 24L651 0L388 0L388 24Q437 24 448 34.50Q459 45 459 89Q459 183 402 264Q345 345 254 346L254 88Q254 44 265 34Q276 24 325 24L325 0M254 417Q321 473 430 486L430 629Q430 673 419 683Q408 693 359 693L325 693Q276 693 265 683Q254 673 254 629L254 417Z"  horiz-adv-x="698" vert-adv-y="1024"  />

      
      <glyph glyph-name="uni53" unicode="&#x53;" d="M217 33Q205 33 174.50 4Q144-25 129-25Q104-25 76.50-0.50Q49 24 49 53Q49 65 79 94Q109 123 133 123Q157 123 184.50 107Q212 91 234.50 72.50Q257 54 294 38Q331 22 373 22Q412 22 437.50 57.50Q463 93 463 166Q463 339 303 339Q239 339 195 352.50Q151 366 129 392Q107 418 98.50 447Q90 476 90 515Q90 616 148.50 671.50Q207 727 318 727Q380 727 426.50 708Q473 689 499 657.50Q525 626 537.50 589Q550 552 550 512Q550 498 489 498Q428 498 428 512Q428 611 401.50 656.50Q375 702 318 702Q272 702 241.50 654Q211 606 211 536Q211 502 215 476.50Q219 451 230.50 424Q242 397 268.50 382Q295 367 334 367Q585 367 585 190Q585 90 528.50 40Q472-10 365-10Q318-10 284 11.50Q250 33 217 33Z"  horiz-adv-x="646" vert-adv-y="1024"  />

      
      <glyph glyph-name="uni54" unicode="&#x54;" d="M461 0L198 0L198 24Q247 24 257.50 34Q268 44 268 88L268 627Q268 672 257 682Q246 692 198 692Q169 692 144 638Q119 584 119 535L94 535Q94 573 81 612.50Q68 652 54 672L41 692L41 717L617 717L617 692Q611 684 602 670Q593 656 578.50 614.50Q564 573 564 535L540 535Q540 584 515 638Q490 692 461 692Q412 692 401 681.50Q390 671 390 627L390 88Q390 44 401 34Q412 24 461 24L461 0Z"  horiz-adv-x="658" vert-adv-y="1024"  />

      
      <glyph glyph-name="uni55" unicode="&#x55;" d="M546 68.50Q546 68.50 519 29.25Q492-10 353-10Q214-10 160 68.50Q106 147 106 338L106 628Q106 673 95 683Q84 693 36 693L36 717L299 717L299 693Q250 693 239 682.50Q228 672 228 628L228 290Q228 236 230 201Q232 166 239 127Q246 88 259 65.50Q272 43 295.50 28.50Q319 14 353 14Q387 14 410.50 28.50Q434 43 447 65.50Q460 88 467 127Q474 166 476 201Q478 236 478 290L478 628Q478 673 467 683Q456 693 408 693L408 717L671 717L671 693Q622 693 611 682.50Q600 672 600 628L600 338Q600 147 546 68.50Z"  horiz-adv-x="731" vert-adv-y="1024"  />

      
      <glyph glyph-name="uni56" unicode="&#x56;" d="M86 628Q75 670 54 681.50Q33 693-19 693L-19 717L244 717L244 693Q191 693 191 674Q191 672 195 656L359 47L504 694Q506 702 514.50 706.50Q523 711 551 714Q579 717 631 717Q645 717 645 705Q645 685 639 640Q633 595 625 595L583 595Q542 595 530.50 591Q519 587 515 567L384 0L257 0L86 628Z"  horiz-adv-x="705" vert-adv-y="1024"  />

      
      <glyph glyph-name="uni57" unicode="&#x57;" d="M420 628Q420 672 409 682.50Q398 693 349 693L349 717L612 717L612 693Q564 693 553 683Q542 673 542 628L542 479Q542 334 587 228Q632 122 681 72Q732 139 773.50 239.50Q815 340 815 463L815 614Q815 658 796 675.50Q777 693 732 693L732 717L945 717L945 693Q900 693 881.50 675.50Q863 658 863 614L863 535Q863 438 840.50 346Q818 254 786 191.50Q754 129 722 80.50Q690 32 668 9L645-14Q641-11 633.50-5.50Q626 0 604.50 21Q583 42 563 65.50Q543 89 518 128Q493 167 474 210Q456 167 433.50 128Q411 89 392.50 64Q374 39 357.50 20.50Q341 2 332-6L323-14Q314-8 298.50 5Q283 18 244 63Q205 108 175.50 160Q146 212 121.50 297.50Q97 383 97 476L97 628Q97 673 86 683Q75 693 27 693L27 717L290 717L290 693Q241 693 230 682.50Q219 672 219 628L219 479Q219 334 264 228Q309 122 358 72Q421 155 457 255Q420 359 420 476L420 628Z"  horiz-adv-x="1005" vert-adv-y="1024"  />

      
      <glyph glyph-name="uni58" unicode="&#x58;" d="M529 88Q550 44 567 34Q584 24 634 24L634 0L371 0L371 24Q401 24 413 27.50Q425 31 425 41Q425 49 408 88L314 284L217 93Q202 65 202 49Q202 34 218 29Q234 24 273 24L273 0L38 0L38 24Q88 24 111 29.50Q134 35 146.50 47.50Q159 60 176 93L295 326L152 628Q132 669 113 681Q94 693 46 693L46 717L309 717L309 693Q257 693 257 674Q257 663 273 628L358 450L483 694Q488 704 494 708Q500 712 522 714.50Q544 717 590 717Q604 717 604 705Q604 685 598 640Q592 595 584 595L542 595Q474 595 462 572L378 408L529 88Z"  horiz-adv-x="673" vert-adv-y="1024"  />

      
      <glyph glyph-name="uni59" unicode="&#x59;" d="M279 39Q271 8 244.50-2Q218-12 135-12Q121-12 121 0Q121 20 127 65Q133 110 141 110L226 110Q258 110 268 114.50Q278 119 282 137L298 200L95 628Q75 669 56.50 681Q38 693-10 693L-10 717L253 717L253 693Q201 693 201 674Q201 663 217 628L341 367L425 694Q427 703 432.50 707Q438 711 465 714Q492 717 546 717Q560 717 560 705Q560 685 554 640Q548 595 540 595L475 595Q445 595 434.50 589Q424 583 420 567L279 39Z"  horiz-adv-x="620" vert-adv-y="1024"  />

      
      <glyph glyph-name="uni5a" unicode="&#x5a;" d="M524 717L524 692L523 692L212 25L406 25Q461 25 493.50-4.50Q526-34 526-75Q526-117 489-145Q452-173 377-173L332-168L336-146Q368-146 388.50-123Q409-100 409-74Q409-47 388.50-23.50Q368 0 336 0L67 0L389 692L261 692Q207 692 173 640.50Q139 589 139 535L115 535Q115 573 101.50 612.50Q88 652 74 672L61 692L61 717L524 717Z"  horiz-adv-x="565" vert-adv-y="1024"  />

      
      <glyph glyph-name="uni5b" unicode="&#x5b;" d="M82 0L82 717L274 717L274 693Q226 693 215 683Q204 673 204 628L204 88Q204 44 214.50 34Q225 24 274 24L274 0L82 0Z"  horiz-adv-x="325" vert-adv-y="1024"  />

      
      <glyph glyph-name="uni5c" unicode="&#x5c;" d="M91 717L368 0L314 0L38 717L91 717Z"  horiz-adv-x="428" vert-adv-y="1024"  />

      
      <glyph glyph-name="uni5d" unicode="&#x5d;" d="M315 717L315 0L123 0L123 24Q172 24 183 34.50Q194 45 194 89L194 629Q194 673 183 683Q172 693 123 693L123 717L315 717Z"  horiz-adv-x="397" vert-adv-y="1024"  />

      
      <glyph glyph-name="uni5e" unicode="&#x5e;" d="M202 753L362 582L338 555L202 649L66 555L41 582L202 753Z"  horiz-adv-x="403" vert-adv-y="1024"  />

      
      <glyph glyph-name="uni5f" unicode="&#x5f;" d="M0-41L307-41L307-96L0-96L0-41Z"  horiz-adv-x="307" vert-adv-y="1024"  />

      
      <glyph glyph-name="uni60" unicode="&#x60;" d="M104 786L297 582L272 555L41 715L104 786Z"  horiz-adv-x="337" vert-adv-y="1024"  />

      
      <glyph glyph-name="uni61" unicode="&#x61;" d="M341 495L428 0L324 0L312 62Q252-10 156-10Q99-10 74.50 25Q50 60 50 104Q50 233 253 403L233 512L317 512Q338 512 341 495M305 106L257 376Q146 283 146 179Q146 140 166 103.50Q186 67 227 67Q277 67 305 106Z"  horiz-adv-x="473" vert-adv-y="1024"  />

      
      <glyph glyph-name="uni62" unicode="&#x62;" d="M447 0L79 0L79 512L421 512Q421 427 378 369.50Q335 312 261 286Q370 273 408.50 213Q447 153 447 0M181 25L345 25Q343 145 308 200Q273 255 181 264L181 25M181 487L181 293Q253 301 284 347Q315 393 318 487L181 487Z"  horiz-adv-x="506" vert-adv-y="1024"  />

      
      <glyph glyph-name="uni63" unicode="&#x63;" d="M281 391Q232 449 224 463Q177 432 161 401Q145 370 145 317Q145 273 166 229.50Q187 186 213 158.50Q239 131 266.50 99.50Q294 68 303 49Q354 87 366 127L422 106Q359 23 255-14Q168 24 105.50 107.50Q43 191 43 254Q43 292 64.50 340.50Q86 389 140 442.50Q194 496 269 522Q327 497 381 443L281 391Z"  horiz-adv-x="467" vert-adv-y="1024"  />

      
      <glyph glyph-name="uni64" unicode="&#x64;" d="M321 522Q317 552 317 574Q317 603 328.50 629Q340 655 357 672Q374 689 391 702Q408 715 420 721L431 727L460 686Q456 683 450 676.50Q444 670 434 647Q424 624 424 598Q424 536 434.50 494Q445 452 458 431.50Q471 411 481.50 367Q492 323 492 258Q492 220 470.50 171.50Q449 123 394.50 69.50Q340 16 265-10Q178 28 115.50 109Q53 190 53 253Q53 304 87 364Q121 424 185 470.50Q249 517 321 522M329 478Q161 465 161 311Q161 268 179.50 226.50Q198 185 221 157.50Q244 130 272 98Q300 66 310 49Q357 80 373 111Q389 142 389 195Q389 264 379.50 313Q370 362 352 409.50Q334 457 329 478Z"  horiz-adv-x="562" vert-adv-y="1024"  />

      
      <glyph glyph-name="uni65" unicode="&#x65;" d="M281 391Q232 449 224 463Q177 432 161 401Q145 370 145 317Q145 301 148 286L353 286L353 261L154 261Q167 219 198.50 178Q230 137 262 103Q294 69 303 49Q354 87 366 127L422 106Q359 23 255-14Q168 24 105.50 107.50Q43 191 43 254Q43 292 64.50 340.50Q86 389 140 442.50Q194 496 269 522Q327 497 381 443L281 391Z"  horiz-adv-x="467" vert-adv-y="1024"  />

      
      <glyph glyph-name="uni66" unicode="&#x66;" d="M84 0L84 351Q84 378 97 413.50Q110 449 135.50 488.50Q161 528 207 564Q253 600 310 620Q368 595 422 541L322 488Q273 546 265 560Q217 529 201.50 498.50Q186 468 186 415L186 383L394 383L394 358L186 358L186 0L84 0Z"  horiz-adv-x="459" vert-adv-y="1024"  />

      
      <glyph glyph-name="uni67" unicode="&#x67;" d="M299 391Q252 446 243 463Q196 432 180 401Q164 370 164 317Q164 273 185 229.50Q206 186 232 158.50Q258 131 285.50 99.50Q313 68 322 49Q352 71 364 81L364 283L466 283L466-30Q466-121 425-163Q384-205 299-205Q270-205 237-184.50Q204-164 182-164Q173-164 148-189.50Q123-215 111-215Q91-215 68.50-197Q46-179 46-157Q46-144 70-124Q94-104 114-104Q151-104 180.50-115.50Q210-127 225.50-141.50Q241-156 262-167.50Q283-179 305-179Q364-179 364-62L364 32Q322 3 273-14Q186 24 123.50 107.50Q61 191 61 254Q61 292 82.50 340.50Q104 389 158.50 442.50Q213 496 288 522Q344 498 399 443L299 391Z"  horiz-adv-x="539" vert-adv-y="1024"  />

      
      <glyph glyph-name="uni68" unicode="&#x68;" d="M189 0L87 0L87 614L189 614L189 510Q225 522 287 522Q323 522 356.50 512.50Q390 503 420 483.50Q450 464 468 427.50Q486 391 486 342L486 0L384 0L384 375Q384 417 374 444Q364 471 346.50 481.50Q329 492 316.50 495Q304 498 287 498Q270 498 257.50 495Q245 492 227 481.50Q209 471 199 444Q189 417 189 375L189 0Z"  horiz-adv-x="552" vert-adv-y="1024"  />

      
      <glyph glyph-name="uni69" unicode="&#x69;" d="M108 582Q104 582 100.50 585Q97 588 97 592L97 677Q97 681 100.50 684Q104 687 108 687L168 687Q178 687 178 677L178 592Q178 582 168 582L108 582M86 512L188 512L188 0L86 0L86 512Z"  horiz-adv-x="271" vert-adv-y="1024"  />

      
      <glyph glyph-name="uni6a" unicode="&#x6a;" d="M159 582Q155 582 151.50 585Q148 588 148 592L148 677Q148 681 151.50 684Q155 687 159 687L219 687Q229 687 229 677L229 592Q229 582 219 582L159 582M137 512L240 512L240 24Q240-98 205.50-151.50Q171-205 94-205Q70-205 42-184.50Q14-164 3-164Q-6-164-31.50-189.50Q-57-215-69-215Q-89-215-111-197Q-133-179-133-157Q-133-144-109.50-124Q-86-104-66-104Q-27-104 21.50-141.50Q70-179 103-179Q123-179 130-137Q137-95 137-9L137 512Z"  horiz-adv-x="327" vert-adv-y="1024"  />

      
      <glyph glyph-name="uni6b" unicode="&#x6b;" d="M79 512L181 512L181 300Q255 325 292 375Q329 425 329 512L431 512L431 487Q431 408 377.50 363Q324 318 220 285Q322 265 377.50 199Q433 133 433 0L331 0Q331 125 287 188.50Q243 252 181 265L181 0L79 0L79 512Z"  horiz-adv-x="498" vert-adv-y="1024"  />

      
      <glyph glyph-name="uni6c" unicode="&#x6c;" d="M181 25L249 25Q317 25 336 48Q355 71 355 154L380 154Q380 116 388 83.50Q396 51 404 38L413 25L413 0L79 0L79 512L181 512L181 25Z"  horiz-adv-x="452" vert-adv-y="1024"  />

      
      <glyph glyph-name="uni6d" unicode="&#x6d;" d="M589 495L676 0L571 0L503 391Q492 373 465.50 337Q439 301 420 268Q401 235 391 200L426 0L322 0L256 373Q156 229 156 40Q156 16 160 0L51 0Q53 70 58 107Q63 144 82 195Q101 246 140 297.50Q179 349 248 421L231 512L315 512Q336 512 339 495L376 284Q382 291 401.50 312.50Q421 334 430 345Q439 356 453.50 374Q468 392 478 407Q488 422 495 437L481 512L567 512Q586 512 589 495Z"  horiz-adv-x="727" vert-adv-y="1024"  />

      
      <glyph glyph-name="uni6e" unicode="&#x6e;" d="M164 0L61 0L61 512L164 512L164 439L338 190L338 512L440 512L440 0L338 0L338 123L164 371L164 0Z"  horiz-adv-x="501" vert-adv-y="1024"  />

      
      <glyph glyph-name="uni6f" unicode="&#x6f;" d="M315 49Q358 81 372 112Q386 143 386 196Q386 239 367.50 281.50Q349 324 326 352Q303 380 275 413Q247 446 237 463Q190 432 174 401Q158 370 158 317Q158 273 179 229.50Q200 186 225.50 158.50Q251 131 278.50 99.50Q306 68 315 49M282 522Q369 484 431.50 400.50Q494 317 494 254Q494 216 472.50 167.50Q451 119 396.50 65.50Q342 12 267-14Q180 24 117.50 107.50Q55 191 55 254Q55 292 76.50 340.50Q98 389 152.50 442.50Q207 496 282 522Z"  horiz-adv-x="552" vert-adv-y="1024"  />

      
      <glyph glyph-name="uni70" unicode="&#x70;" d="M209-20Q223-90 223-145Q223-174 211.50-200Q200-226 183-243Q166-260 150-273Q134-286 122-292L110-298L81-257Q85-254 91-247.50Q97-241 107-218Q117-195 117-169Q117-77 83 39Q49 155 49 254Q49 292 70.50 340.50Q92 389 146 442.50Q200 496 275 522Q362 484 424.50 400.50Q487 317 487 254Q487 201 451.50 139Q416 77 349.50 29Q283-19 209-20M198 24Q380 32 380 196Q380 239 361 281.50Q342 324 319.50 352Q297 380 268.50 413Q240 446 230 463Q183 432 167.50 401.50Q152 371 152 317Q152 287 154.50 257Q157 227 159.50 205.50Q162 184 168 154Q174 124 177 110.50Q180 97 188 64.50Q196 32 198 24Z"  horiz-adv-x="530" vert-adv-y="1024"  />

      
      <glyph glyph-name="uni71" unicode="&#x71;" d="M336-20Q262-19 195 29Q128 77 92.50 139Q57 201 57 254Q57 317 119.50 400.50Q182 484 269 522Q344 496 398.50 442.50Q453 389 474.50 340.50Q496 292 496 254Q496 155 462 39Q428-77 428-169Q428-195 437-217Q446-239 455-248L464-257L435-298Q430-296 422.50-292Q415-288 395.50-273.50Q376-259 361-243Q346-227 334-200.50Q322-174 322-145Q322-90 336-20M347 24Q349 32 357 64.50Q365 97 368 110.50Q371 124 377 154Q383 184 385.50 205.50Q388 227 390.50 257Q393 287 393 317Q393 370 377 401Q361 432 314 463Q304 446 276 413Q248 380 225 352Q202 324 183.50 281.50Q165 239 165 196Q165 32 347 24Z"  horiz-adv-x="564" vert-adv-y="1024"  />

      
      <glyph glyph-name="uni72" unicode="&#x72;" d="M79 512L181 512L181 449Q235 498 305 522Q363 497 417 443L316 391Q269 446 260 463Q213 432 197 401Q181 370 181 317L181 0L79 0L79 512Z"  horiz-adv-x="458" vert-adv-y="1024"  />

      
      <glyph glyph-name="uni73" unicode="&#x73;" d="M191 39Q182 39 155 10Q128-19 116-19Q96-19 73.50-1Q51 17 51 39Q51 49 78 77.50Q105 106 124 106Q152 106 224.50 61Q297 16 335 16Q365 16 386.50 52.50Q408 89 408 146Q408 279 280 279Q197 279 150 312.50Q103 346 103 395Q103 466 149.50 494Q196 522 292 522Q387 522 432 479Q477 436 477 377Q477 366 428 366Q375 366 375 377Q375 441 356 469.50Q337 498 292 498Q253 498 229.50 471.50Q206 445 206 394Q206 359 231.50 331Q257 303 304 303Q412 303 461 264.50Q510 226 510 165Q510 88 461 39Q412-10 329-10Q298-10 258 14.50Q218 39 191 39Z"  horiz-adv-x="570" vert-adv-y="1024"  />

      
      <glyph glyph-name="uni74" unicode="&#x74;" d="M198 0L198 487Q158 487 139 484Q120 481 104.50 468Q89 455 85 430Q81 405 81 358L56 358Q56 396 48 428.50Q40 461 32 474L24 487L24 512L474 512L474 487Q441 444 441 358L417 358Q417 405 413 430Q409 455 393.50 468Q378 481 359 484Q340 487 300 487L300 0L198 0Z"  horiz-adv-x="503" vert-adv-y="1024"  />

      
      <glyph glyph-name="uni75" unicode="&#x75;" d="M51 340Q51 373 56.50 403Q62 433 70 452Q78 471 86 486Q94 500 100 506L106 512L205 512Q199 504 190.50 489.50Q182 475 168 430.50Q154 386 154 342Q154 222 195 138.50Q236 55 307 55Q375 55 405.50 122Q436 189 436 297Q436 343 419 380Q402 417 385.50 448Q369 479 369 512L469 512Q494 471 494 416Q494 320 482 245Q470 170 450 123Q430 76 402.50 45.50Q375 15 346 2.50Q317-10 285-10Q245-10 204.50 12Q164 34 129 75.50Q94 117 72.50 186Q51 255 51 340Z"  horiz-adv-x="549" vert-adv-y="1024"  />

      
      <glyph glyph-name="uni76" unicode="&#x76;" d="M282 39L299 39L420 490Q424 503 430 506Q445 513 512 513Q526 513 526 501Q526 481 520 436Q514 391 506 391L464 391Q434 391 429 387.50Q424 384 419 364L321 0L203 0L53 487Q49 499 49 502Q49 513 66 513L108 513Q126 513 133 508Q140 503 145 489L282 39Z"  horiz-adv-x="567" vert-adv-y="1024"  />

      
      <glyph glyph-name="uni77" unicode="&#x77;" d="M537-10Q528-5 512.50 4.50Q497 14 459 47.50Q421 81 393 121Q369 78 339 45Q308 12 290 1L272-10Q263-5 249 4Q235 13 198 45Q161 77 133 114Q105 151 82 212Q59 273 59 340Q59 393 73 436Q87 480 101 496L115 512L213 512Q207 504 198.50 489.50Q190 475 176 430.50Q162 386 162 342Q162 242 204 168Q246 94 295 55Q342 97 372 157Q324 243 324 340Q324 393 338 436Q352 480 366 496L379 512L477 512Q471 504 462.50 489.50Q454 475 440 430.50Q426 386 426 342Q426 242 468 168Q510 94 559 55Q668 152 668 297Q668 343 651 380Q634 417 617 448Q600 479 600 512L700 512Q702 504 713.50 476Q725 448 725 416Q725 324 705.50 246Q686 168 658.50 123Q631 78 603.50 46Q576 14 556 2L537-10Z"  horiz-adv-x="787" vert-adv-y="1024"  />

      
      <glyph glyph-name="uni78" unicode="&#x78;" d="M102 512L164 512L255 355L332 489Q337 498 342 501.50Q347 505 370 508.50Q393 512 438 512Q453 512 453 500Q453 481 446.50 435.50Q440 390 432 390L373 390Q308 390 297 368L272 324L460 0L342 0L215 220L92 0L51 0L197 253L78 458Q70 471 70 485Q70 512 102 512Z"  horiz-adv-x="510" vert-adv-y="1024"  />

      
      <glyph glyph-name="uni79" unicode="&#x79;" d="M362-45Q362-122 377-165Q392-208 392-221Q392-232 386.50-239Q381-246 373-246Q336-246 336-41L336 0L231 0L48 487Q45 496 45 502Q45 513 61 513L117 513Q135 513 142 508.50Q149 504 154 489L325 32L337 32Q342 212 366 332Q390 452 414 490Q427 512 510 513Q523 513 523 501Q523 481 517 436Q511 391 503 391L472 391Q441 391 429 384.50Q417 378 408 358Q399 339 389.50 301Q380 263 371 170Q362 77 362-45Z"  horiz-adv-x="568" vert-adv-y="1024"  />

      
      <glyph glyph-name="uni7a" unicode="&#x7a;" d="M210-168L214-146Q258-146 281-124Q304-102 304-74Q304-44 283.50-22Q263 0 214 0L63 0L290 487L232 487Q164 487 145 464Q126 441 126 358L101 358Q101 396 93 428.50Q85 461 77 474L69 487L69 512L415 512L186 25L284 25Q339 25 371.50-4.50Q404-34 404-75Q404-117 367-145Q330-173 255-173L210-168Z"  horiz-adv-x="468" vert-adv-y="1024"  />

      
      <glyph glyph-name="uni7b" unicode="&#x7b;" d="M270 729L270 717Q224 717 208.50 689.50Q193 662 193 609Q193 594 194.50 561Q196 528 196 511Q196 450 177.50 410.50Q159 371 106 358Q159 345 177.50 306Q196 267 196 206Q196 189 194.50 156Q193 123 193 108Q193 55 208.50 27.50Q224 0 270 0L270-12Q181-12 149.50 27Q118 66 118 136Q118 158 121 200.50Q124 243 124 261Q124 305 108.50 328.50Q93 352 51 352L51 365Q93 365 108.50 388.50Q124 412 124 456Q124 474 121 517Q118 560 118 581Q118 651 149.50 690Q181 729 270 729Z"  horiz-adv-x="311" vert-adv-y="1024"  />

      
      <glyph glyph-name="uni7c" unicode="&#x7c;" d="M72 748L113 748L113-31L72-31L72 748Z"  horiz-adv-x="184" vert-adv-y="1024"  />

      
      <glyph glyph-name="uni7d" unicode="&#x7d;" d="M41-12L41 0Q87 0 103 28Q119 56 119 108Q119 123 117.50 156Q116 189 116 206Q116 267 134 306Q152 345 205 358Q169 367 148 391.50Q127 416 121.50 443.50Q116 471 116 511Q116 528 117.50 561Q119 594 119 609Q119 661 103 689Q87 717 41 717L41 729Q130 729 162 689.50Q194 650 194 581Q194 560 190.50 517.50Q187 475 187 456Q187 412 202.50 388.50Q218 365 260 365L260 352Q218 352 202.50 328.50Q187 305 187 261Q187 242 190.50 200Q194 158 194 136Q194 67 162 27.50Q130-12 41-12Z"  horiz-adv-x="311" vert-adv-y="1024"  />

      
      <glyph glyph-name="uni7e" unicode="&#x7e;" d="M294 530Q260 530 203.50 552Q147 574 118 574L108 573Q89 528 65 528Q54 528 42 536.50Q30 545 30 563Q30 574 33 583.50Q36 593 49 602.50Q62 612 83 612Q117 612 173.50 590Q230 568 259 568L269 569Q288 614 312 614Q319 614 326 611.50Q333 609 340 601Q347 593 347 580Q347 569 344 559Q341 549 328 539.50Q315 530 294 530Z"  horiz-adv-x="376" vert-adv-y="1024"  />

      
      <glyph glyph-name="unia0" unicode="&#xa0;" d="Z"  horiz-adv-x="307" vert-adv-y="1024"  />

      
      <glyph glyph-name="unia1" unicode="&#xa1;" d="M191-102L80-102L100 451L171 451L191-102M171 614Q181 614 181 604L181 532Q181 522 171 522L100 522Q90 522 90 532L90 604Q90 614 100 614L171 614Z"  horiz-adv-x="268" vert-adv-y="1024"  />

      
      <glyph glyph-name="unia8" unicode="&#xa8;" d="M180 735Q170 735 170 745L170 856Q170 866 180 866L241 866Q251 866 251 856L251 745Q251 735 241 735L180 735M31 735Q27 735 23.50 738Q20 741 20 745L20 856Q20 860 23.50 863Q27 866 31 866L91 866Q101 866 101 856L101 745Q101 735 91 735L31 735Z"  horiz-adv-x="311" vert-adv-y="1024"  />

      
      <glyph glyph-name="uniab" unicode="&#xab;" d="M61 306L244 520L274 501L170 306L274 112L244 92L61 306M266 306L449 520L479 501L375 306L479 112L449 92L266 306Z"  horiz-adv-x="540" vert-adv-y="1024"  />

      
      <glyph glyph-name="uniad" unicode="&#xad;" d="M33 381L303 381L303 326L33 326L33 381Z"  horiz-adv-x="359" vert-adv-y="1024"  />

      
      <glyph glyph-name="uniaf" unicode="&#xaf;" d="M33 819L327 819L327 764L33 764L33 819Z"  horiz-adv-x="359" vert-adv-y="1024"  />

      
      <glyph glyph-name="unib0" unicode="&#xb0;" d="M111 575Q111 575 96 560Q81 545 81 502Q81 459 111 428.50Q141 398 184 398Q227 398 257.50 428.50Q288 459 288 502Q288 545 257.50 575Q227 605 184 605Q141 605 111 575M83 400.50Q83 400.50 62 421.75Q41 443 41 502Q41 561 83 603Q125 645 184 645Q243 645 285.50 603Q328 561 328 502Q328 443 285.50 400.50Q243 358 184 358Q125 358 83 400.50Z"  horiz-adv-x="368" vert-adv-y="1024"  />

      
      <glyph glyph-name="unib4" unicode="&#xb4;" d="M233 786L297 715L66 555L41 582L233 786Z"  horiz-adv-x="337" vert-adv-y="1024"  />

      
      <glyph glyph-name="unib8" unicode="&#xb8;" d="M90 22L132 22L129-51Q172-51 196.50-70.50Q221-90 221-117Q221-188 41-188L41-168Q80-168 108.50-155Q137-142 137-119Q137-103 122-88.50Q107-74 86-74L90 22Z"  horiz-adv-x="262" vert-adv-y="1024"  />

      
      <glyph glyph-name="unibb" unicode="&#xbb;" d="M274 306L92 92L61 112L166 306L61 501L92 520L274 306M479 306L297 92L266 112L371 306L266 501L297 520L479 306Z"  horiz-adv-x="540" vert-adv-y="1024"  />

      
      <glyph glyph-name="unibf" unicode="&#xbf;" d="M336 625Q340 625 343 621.50Q346 618 346 614L346 543Q346 539 343 535.50Q340 532 336 532L265 532Q261 532 258 535.50Q255 539 255 543L255 614Q255 618 258 621.50Q261 625 265 625L336 625M360 443Q360 358 331 308.50Q302 259 219 209Q173 181 173 58Q173 2 193.50-38Q214-78 250-78Q295-78 314-49.50Q333-21 333 43Q333 54 386 54Q435 54 435 43Q435-16 390-59Q345-102 250-102Q159-102 105-59.50Q51-17 51 57Q51 138 165 209Q210 238 225 286Q240 334 240 443L360 443Z"  horiz-adv-x="486" vert-adv-y="1024"  />

      
      <glyph glyph-name="unic0" unicode="&#xc0;" d="M239 984L432 780L407 753L176 913L239 984M529 88Q529 44 540 34Q551 24 600 24L600 0L337 0L337 24Q386 24 397 34Q408 44 408 88L408 377Q329 262 227 262Q266 236 266 189Q266 133 214 110L214 102Q214 58 233 41Q252 24 297 24L297 0L61 0L61 24Q106 24 124.50 41Q143 58 143 102L143 109Q119 119 104 140.50Q89 162 89 189Q89 218 107 241.50Q125 265 152 273Q87 296 87 370Q87 421 122.50 470.50Q158 520 215 558.50Q272 597 316.50 620.50Q361 644 406 663Q403 683 389.50 688Q376 693 337 693L337 717L600 717L600 693Q551 693 540 682.50Q529 672 529 628L529 88M408 424L408 628L408 632Q377 620 348 603.50Q319 587 283.50 560.50Q248 534 226.50 497Q205 460 205 418Q205 324 285 324Q337 324 408 424Z"  horiz-adv-x="661" vert-adv-y="1024"  />

      
      <glyph glyph-name="unic1" unicode="&#xc1;" d="M456 984L520 913L289 753L264 780L456 984M529 88Q529 44 540 34Q551 24 600 24L600 0L337 0L337 24Q386 24 397 34Q408 44 408 88L408 377Q329 262 227 262Q266 236 266 189Q266 133 214 110L214 102Q214 58 233 41Q252 24 297 24L297 0L61 0L61 24Q106 24 124.50 41Q143 58 143 102L143 109Q119 119 104 140.50Q89 162 89 189Q89 218 107 241.50Q125 265 152 273Q87 296 87 370Q87 421 122.50 470.50Q158 520 215 558.50Q272 597 316.50 620.50Q361 644 406 663Q403 683 389.50 688Q376 693 337 693L337 717L600 717L600 693Q551 693 540 682.50Q529 672 529 628L529 88M408 424L408 628L408 632Q377 620 348 603.50Q319 587 283.50 560.50Q248 534 226.50 497Q205 460 205 418Q205 324 285 324Q337 324 408 424Z"  horiz-adv-x="661" vert-adv-y="1024"  />

      
      <glyph glyph-name="unic2" unicode="&#xc2;" d="M341 952L501 781L477 754L341 848L205 754L180 781L341 952M529 88Q529 44 540 34Q551 24 600 24L600 0L337 0L337 24Q386 24 397 34Q408 44 408 88L408 377Q329 262 227 262Q266 236 266 189Q266 133 214 110L214 102Q214 58 233 41Q252 24 297 24L297 0L61 0L61 24Q106 24 124.50 41Q143 58 143 102L143 109Q119 119 104 140.50Q89 162 89 189Q89 218 107 241.50Q125 265 152 273Q87 296 87 370Q87 421 122.50 470.50Q158 520 215 558.50Q272 597 316.50 620.50Q361 644 406 663Q403 683 389.50 688Q376 693 337 693L337 717L600 717L600 693Q551 693 540 682.50Q529 672 529 628L529 88M408 424L408 628L408 632Q377 620 348 603.50Q319 587 283.50 560.50Q248 534 226.50 497Q205 460 205 418Q205 324 285 324Q337 324 408 424Z"  horiz-adv-x="661" vert-adv-y="1024"  />

      
      <glyph glyph-name="unic3" unicode="&#xc3;" d="M441 754Q407 754 350.50 776Q294 798 265 798L255 797Q236 752 212 752Q201 752 189 760.50Q177 769 177 787Q177 798 180 807.50Q183 817 196 826.50Q209 836 230 836Q264 836 320.50 814Q377 792 406 792L416 793Q435 838 459 838Q466 838 473 835.50Q480 833 487 825Q494 817 494 804Q494 793 491 783Q488 773 475 763.50Q462 754 441 754M529 88Q529 44 540 34Q551 24 600 24L600 0L337 0L337 24Q386 24 397 34Q408 44 408 88L408 377Q329 262 227 262Q266 236 266 189Q266 133 214 110L214 102Q214 58 233 41Q252 24 297 24L297 0L61 0L61 24Q106 24 124.50 41Q143 58 143 102L143 109Q119 119 104 140.50Q89 162 89 189Q89 218 107 241.50Q125 265 152 273Q87 296 87 370Q87 421 122.50 470.50Q158 520 215 558.50Q272 597 316.50 620.50Q361 644 406 663Q403 683 389.50 688Q376 693 337 693L337 717L600 717L600 693Q551 693 540 682.50Q529 672 529 628L529 88M408 424L408 628L408 632Q377 620 348 603.50Q319 587 283.50 560.50Q248 534 226.50 497Q205 460 205 418Q205 324 285 324Q337 324 408 424Z"  horiz-adv-x="661" vert-adv-y="1024"  />

      
      <glyph glyph-name="unic4" unicode="&#xc4;" d="M387 778Q377 778 377 788L377 899Q377 909 387 909L448 909Q458 909 458 899L458 788Q458 778 448 778L387 778M238 778Q234 778 230.50 781Q227 784 227 788L227 899Q227 903 230.50 906Q234 909 238 909L298 909Q308 909 308 899L308 788Q308 778 298 778L238 778M529 88Q529 44 540 34Q551 24 600 24L600 0L337 0L337 24Q386 24 397 34Q408 44 408 88L408 377Q329 262 227 262Q266 236 266 189Q266 133 214 110L214 102Q214 58 233 41Q252 24 297 24L297 0L61 0L61 24Q106 24 124.50 41Q143 58 143 102L143 109Q119 119 104 140.50Q89 162 89 189Q89 218 107 241.50Q125 265 152 273Q87 296 87 370Q87 421 122.50 470.50Q158 520 215 558.50Q272 597 316.50 620.50Q361 644 406 663Q403 683 389.50 688Q376 693 337 693L337 717L600 717L600 693Q551 693 540 682.50Q529 672 529 628L529 88M408 424L408 628L408 632Q377 620 348 603.50Q319 587 283.50 560.50Q248 534 226.50 497Q205 460 205 418Q205 324 285 324Q337 324 408 424Z"  horiz-adv-x="661" vert-adv-y="1024"  />

      
      <glyph glyph-name="unic5" unicode="&#xc5;" d="M423.50 861Q423.50 861 414.25 851.50Q405 842 405 815Q405 788 423.50 769.50Q442 751 469 751Q496 751 515 769.50Q534 788 534 815Q534 842 515 861Q496 880 469 880Q442 880 423.50 861M401.50 747.50Q401.50 747.50 387.25 761.75Q373 776 373 815Q373 854 401.50 882.50Q430 911 469 911Q508 911 536.50 882.50Q565 854 565 815Q565 776 536.50 747.50Q508 719 469 719Q430 719 401.50 747.50M529 88Q529 44 540 34Q551 24 600 24L600 0L337 0L337 24Q386 24 397 34Q408 44 408 88L408 377Q329 262 227 262Q266 236 266 189Q266 133 214 110L214 102Q214 58 233 41Q252 24 297 24L297 0L61 0L61 24Q106 24 124.50 41Q143 58 143 102L143 109Q119 119 104 140.50Q89 162 89 189Q89 218 107 241.50Q125 265 152 273Q87 296 87 370Q87 421 122.50 470.50Q158 520 215 558.50Q272 597 316.50 620.50Q361 644 406 663Q403 683 389.50 688Q376 693 337 693L337 717L600 717L600 693Q551 693 540 682.50Q529 672 529 628L529 88M408 424L408 628L408 632Q377 620 348 603.50Q319 587 283.50 560.50Q248 534 226.50 497Q205 460 205 418Q205 324 285 324Q337 324 408 424Z"  horiz-adv-x="661" vert-adv-y="1024"  />

      
      <glyph glyph-name="unic6" unicode="&#xc6;" d="M408 424L408 632Q377 620 348 603.50Q319 587 283.50 560.50Q248 534 226.50 497Q205 460 205 418Q205 324 285 324Q337 324 408 424M990 173Q953 173 932 154Q911 135 898 108.50Q885 82 866 55Q847 28 799 9Q751-10 675-10Q631-10 597 0L337 0L337 24Q386 24 397 34Q408 44 408 88L408 377Q329 262 227 262Q266 236 266 189Q266 133 214 110L214 102Q214 58 233 41Q252 24 297 24L297 0L61 0L61 24Q106 24 124.50 41Q143 58 143 102L143 109Q119 119 104 140.50Q89 162 89 189Q89 218 107 241.50Q125 265 152 273Q87 296 87 370Q87 421 122.50 470.50Q158 520 215 558.50Q272 597 316.50 620.50Q361 644 406 663Q403 683 389.50 688Q376 693 337 693L337 717L594 717Q633 728 675 728Q723 728 759.50 720Q796 712 818 701.50Q840 691 859 670Q878 649 887 633.50Q896 618 911 589Q933 545 990 545L990 521L727 521L727 545Q777 545 792.50 556Q808 567 808 589Q808 631 774.50 667Q741 703 677 703Q603 703 569 631Q535 559 530 422Q589 470 668 470Q773 470 819 450.50Q865 431 891 377Q898 361 901.50 355.50Q905 350 915 336Q925 322 940 316Q955 310 975 310L975 287L712 287L712 310Q750 310 769.50 317Q789 324 793 332.50Q797 341 797 357Q797 385 768 414Q739 443 670 443Q591 443 529 383L529 358Q529 188 562 101Q595 14 677 14Q741 14 774.50 50Q808 86 808 128Q808 151 792.50 162Q777 173 727 173L727 197L990 197L990 173Z"  horiz-adv-x="1056" vert-adv-y="1024"  />

      
      <glyph glyph-name="unic7" unicode="&#xc7;" d="M182 358Q182 272 187.50 214.50Q193 157 207 108.50Q221 60 249 37Q277 14 319 14Q389 14 420 59.50Q451 105 451 195Q451 239 440 249.50Q429 260 380 260L380 284L643 284L643 260Q633 260 625.50 259.50Q618 259 611.50 259Q605 259 601 257Q597 255 593.50 254Q590 253 587.50 249Q585 245 583.50 243Q582 241 580.50 234.50Q579 228 578 224.50Q577 221 575 211Q573 201 572 195Q549 87 493 38Q442-6 337-10Q336-39 335-68Q378-68 402.50-87.50Q427-107 427-134Q427-205 247-205L247-185Q286-185 314.50-172Q343-159 343-136Q343-120 328-105.50Q313-91 292-91Q294-50 295-9Q178-2 118 90Q54 189 54 359Q54 528 118.50 628Q183 728 317 728Q438 728 494.50 679Q551 630 572 523Q581 477 586 470Q596 458 643 458L643 434L380 434L380 458Q429 458 440 468.50Q451 479 451 523Q451 613 420 658Q389 703 319 703Q277 703 249 679.50Q221 656 207 607.50Q193 559 187.50 501Q182 443 182 358Z"  horiz-adv-x="701" vert-adv-y="1024"  />

      
      <glyph glyph-name="unic8" unicode="&#xc8;" d="M239 984L432 780L407 753L176 913L239 984M574 128Q558 98 550 84Q542 70 522.50 48Q503 26 481.50 16Q460 6 423.50-2Q387-10 339-10Q204-10 135 90.50Q66 191 66 359Q66 526 135 627Q204 728 339 728Q387 728 423.50 720Q460 712 482 701.50Q504 691 523 670Q542 649 551 633.50Q560 618 575 589Q597 545 654 545L654 521L391 521L391 545Q441 545 456.50 556Q472 567 472 589Q472 631 438.50 667Q405 703 341 703Q267 703 233.50 631Q200 559 195 422Q254 470 332 470Q437 470 483 450.50Q529 431 555 377Q562 361 565.50 355.50Q569 350 579 336Q589 322 604 316Q619 310 639 310L639 287L376 287L376 310Q414 310 433.50 317Q453 324 457 332.50Q461 341 461 357Q461 385 432 414Q403 443 334 443Q256 443 194 383L194 358Q194 188 226.50 101Q259 14 341 14Q405 14 438.50 50Q472 86 472 128Q472 151 456.50 162Q441 173 391 173L391 197L654 197L654 173Q596 173 574 128Z"  horiz-adv-x="720" vert-adv-y="1024"  />

      
      <glyph glyph-name="unic9" unicode="&#xc9;" d="M456 984L520 913L289 753L264 780L456 984M574 128Q558 98 550 84Q542 70 522.50 48Q503 26 481.50 16Q460 6 423.50-2Q387-10 339-10Q204-10 135 90.50Q66 191 66 359Q66 526 135 627Q204 728 339 728Q387 728 423.50 720Q460 712 482 701.50Q504 691 523 670Q542 649 551 633.50Q560 618 575 589Q597 545 654 545L654 521L391 521L391 545Q441 545 456.50 556Q472 567 472 589Q472 631 438.50 667Q405 703 341 703Q267 703 233.50 631Q200 559 195 422Q254 470 332 470Q437 470 483 450.50Q529 431 555 377Q562 361 565.50 355.50Q569 350 579 336Q589 322 604 316Q619 310 639 310L639 287L376 287L376 310Q414 310 433.50 317Q453 324 457 332.50Q461 341 461 357Q461 385 432 414Q403 443 334 443Q256 443 194 383L194 358Q194 188 226.50 101Q259 14 341 14Q405 14 438.50 50Q472 86 472 128Q472 151 456.50 162Q441 173 391 173L391 197L654 197L654 173Q596 173 574 128Z"  horiz-adv-x="720" vert-adv-y="1024"  />

      
      <glyph glyph-name="unica" unicode="&#xca;" d="M341 952L501 781L477 754L341 848L205 754L180 781L341 952M574 128Q558 98 550 84Q542 70 522.50 48Q503 26 481.50 16Q460 6 423.50-2Q387-10 339-10Q204-10 135 90.50Q66 191 66 359Q66 526 135 627Q204 728 339 728Q387 728 423.50 720Q460 712 482 701.50Q504 691 523 670Q542 649 551 633.50Q560 618 575 589Q597 545 654 545L654 521L391 521L391 545Q441 545 456.50 556Q472 567 472 589Q472 631 438.50 667Q405 703 341 703Q267 703 233.50 631Q200 559 195 422Q254 470 332 470Q437 470 483 450.50Q529 431 555 377Q562 361 565.50 355.50Q569 350 579 336Q589 322 604 316Q619 310 639 310L639 287L376 287L376 310Q414 310 433.50 317Q453 324 457 332.50Q461 341 461 357Q461 385 432 414Q403 443 334 443Q256 443 194 383L194 358Q194 188 226.50 101Q259 14 341 14Q405 14 438.50 50Q472 86 472 128Q472 151 456.50 162Q441 173 391 173L391 197L654 197L654 173Q596 173 574 128Z"  horiz-adv-x="720" vert-adv-y="1024"  />

      
      <glyph glyph-name="unicb" unicode="&#xcb;" d="M387 778Q377 778 377 788L377 899Q377 909 387 909L448 909Q458 909 458 899L458 788Q458 778 448 778L387 778M238 778Q234 778 230.50 781Q227 784 227 788L227 899Q227 903 230.50 906Q234 909 238 909L298 909Q308 909 308 899L308 788Q308 778 298 778L238 778M574 128Q558 98 550 84Q542 70 522.50 48Q503 26 481.50 16Q460 6 423.50-2Q387-10 339-10Q204-10 135 90.50Q66 191 66 359Q66 526 135 627Q204 728 339 728Q387 728 423.50 720Q460 712 482 701.50Q504 691 523 670Q542 649 551 633.50Q560 618 575 589Q597 545 654 545L654 521L391 521L391 545Q441 545 456.50 556Q472 567 472 589Q472 631 438.50 667Q405 703 341 703Q267 703 233.50 631Q200 559 195 422Q254 470 332 470Q437 470 483 450.50Q529 431 555 377Q562 361 565.50 355.50Q569 350 579 336Q589 322 604 316Q619 310 639 310L639 287L376 287L376 310Q414 310 433.50 317Q453 324 457 332.50Q461 341 461 357Q461 385 432 414Q403 443 334 443Q256 443 194 383L194 358Q194 188 226.50 101Q259 14 341 14Q405 14 438.50 50Q472 86 472 128Q472 151 456.50 162Q441 173 391 173L391 197L654 197L654 173Q596 173 574 128Z"  horiz-adv-x="720" vert-adv-y="1024"  />

      
      <glyph glyph-name="unicc" unicode="&#xcc;" d="M63 984L256 780L231 753L0 913L63 984M254 88Q254 44 265 34Q276 24 325 24L325 0L61 0L61 24Q110 24 121 34Q132 44 132 88L132 628Q132 672 121 682.50Q110 693 61 693L61 717L325 717L325 693Q276 693 265 682.50Q254 672 254 628L254 88Z"  horiz-adv-x="386" vert-adv-y="1024"  />

      
      <glyph glyph-name="unicd" unicode="&#xcd;" d="M322 984L386 913L155 753L130 780L322 984M254 88Q254 44 265 34Q276 24 325 24L325 0L61 0L61 24Q110 24 121 34Q132 44 132 88L132 628Q132 672 121 682.50Q110 693 61 693L61 717L325 717L325 693Q276 693 265 682.50Q254 672 254 628L254 88Z"  horiz-adv-x="386" vert-adv-y="1024"  />

      
      <glyph glyph-name="unice" unicode="&#xce;" d="M193 952L353 781L329 754L193 848L57 754L32 781L193 952M254 88Q254 44 265 34Q276 24 325 24L325 0L61 0L61 24Q110 24 121 34Q132 44 132 88L132 628Q132 672 121 682.50Q110 693 61 693L61 717L325 717L325 693Q276 693 265 682.50Q254 672 254 628L254 88Z"  horiz-adv-x="386" vert-adv-y="1024"  />

      
      <glyph glyph-name="unicf" unicode="&#xcf;" d="M254 88Q254 44 265 34Q276 24 325 24L325 0L61 0L61 24Q110 24 121 34Q132 44 132 88L132 628Q132 672 121 682.50Q110 693 61 693L61 717L325 717L325 693Q276 693 265 682.50Q254 672 254 628L254 88M235 778Q225 778 225 788L225 899Q225 909 235 909L296 909Q306 909 306 899L306 788Q306 778 296 778L235 778M86 778Q82 778 78.50 781Q75 784 75 788L75 899Q75 903 78.50 906Q82 909 86 909L146 909Q156 909 156 899L156 788Q156 778 146 778L86 778Z"  horiz-adv-x="386" vert-adv-y="1024"  />

      
      <glyph glyph-name="unid0" unicode="&#xd0;" d="M325 717Q487 717 557 623.50Q627 530 627 341Q627 171 556.50 85.50Q486 0 325 0L61 0L61 24Q110 24 121 34Q132 44 132 88L132 340L61 340L61 375L132 375L132 628Q132 672 121 682.50Q110 693 61 693L61 717L325 717M254 340L254 88Q254 44 265 34.50Q276 25 325 25Q403 25 451 113.50Q499 202 499 341Q499 510 452 601Q405 692 325 692Q276 692 265 682Q254 672 254 628L254 375L332 375L332 340L254 340Z"  horiz-adv-x="693" vert-adv-y="1024"  />

      
      <glyph glyph-name="unid1" unicode="&#xd1;" d="M452 754Q418 754 361.50 776Q305 798 276 798L266 797Q247 752 223 752Q212 752 200 760.50Q188 769 188 787Q188 798 191 807.50Q194 817 207 826.50Q220 836 241 836Q275 836 331.50 814Q388 792 417 792L427 793Q446 838 470 838Q477 838 484 835.50Q491 833 498 825Q505 817 505 804Q505 793 502 783Q499 773 486 763.50Q473 754 452 754M579 88Q579 44 589.50 34Q600 24 649 24L649 0L386 0L386 24Q435 24 446 34Q457 44 457 88L457 218L254 461L254 88Q254 44 265 34Q276 24 325 24L325 0L61 0L61 24Q110 24 121 34Q132 44 132 88L132 628Q132 672 121 682.50Q110 693 61 693L61 717L325 717L325 693Q276 693 265 682.50Q254 672 254 628L254 510L457 269L457 628Q457 672 446 682.50Q435 693 386 693L386 717L649 717L649 693Q601 693 590 683Q579 673 579 628L579 88Z"  horiz-adv-x="710" vert-adv-y="1024"  />

      
      <glyph glyph-name="unid2" unicode="&#xd2;" d="M147 984L340 780L315 753L84 913L147 984M317 703Q274 703 246 679.50Q218 656 204 607.50Q190 559 184.50 501Q179 443 179 358Q179 290 182 241Q185 192 194 147Q203 102 218 74Q233 46 258 30Q283 14 317 14Q359 14 387 37.50Q415 61 429.50 109.50Q444 158 449.50 216Q455 274 455 359Q455 444 449.50 502.50Q444 561 429.50 609Q415 657 387 680Q359 703 317 703M117 628Q117 628 150 678Q183 728 317 728Q451 728 517 627.50Q583 527 583 358Q583 189 517 89.50Q451-10 317-10Q183-10 117 90Q51 190 51 359Q51 528 117 628Z"  horiz-adv-x="633" vert-adv-y="1024"  />

      
      <glyph glyph-name="unid3" unicode="&#xd3;" d="M485 984L549 913L318 753L293 780L485 984M317 703Q274 703 246 679.50Q218 656 204 607.50Q190 559 184.50 501Q179 443 179 358Q179 290 182 241Q185 192 194 147Q203 102 218 74Q233 46 258 30Q283 14 317 14Q359 14 387 37.50Q415 61 429.50 109.50Q444 158 449.50 216Q455 274 455 359Q455 444 449.50 502.50Q444 561 429.50 609Q415 657 387 680Q359 703 317 703M117 628Q117 628 150 678Q183 728 317 728Q451 728 517 627.50Q583 527 583 358Q583 189 517 89.50Q451-10 317-10Q183-10 117 90Q51 190 51 359Q51 528 117 628Z"  horiz-adv-x="633" vert-adv-y="1024"  />

      
      <glyph glyph-name="unid4" unicode="&#xd4;" d="M317 952L477 781L453 754L317 848L181 754L156 781L317 952M317 703Q274 703 246 679.50Q218 656 204 607.50Q190 559 184.50 501Q179 443 179 358Q179 290 182 241Q185 192 194 147Q203 102 218 74Q233 46 258 30Q283 14 317 14Q359 14 387 37.50Q415 61 429.50 109.50Q444 158 449.50 216Q455 274 455 359Q455 444 449.50 502.50Q444 561 429.50 609Q415 657 387 680Q359 703 317 703M117 628Q117 628 150 678Q183 728 317 728Q451 728 517 627.50Q583 527 583 358Q583 189 517 89.50Q451-10 317-10Q183-10 117 90Q51 190 51 359Q51 528 117 628Z"  horiz-adv-x="633" vert-adv-y="1024"  />

      
      <glyph glyph-name="unid5" unicode="&#xd5;" d="M422 754Q388 754 331.50 776Q275 798 246 798L236 797Q217 752 193 752Q182 752 170 760.50Q158 769 158 787Q158 798 161 807.50Q164 817 177 826.50Q190 836 211 836Q245 836 301.50 814Q358 792 387 792L397 793Q416 838 440 838Q447 838 454 835.50Q461 833 468 825Q475 817 475 804Q475 793 472 783Q469 773 456 763.50Q443 754 422 754M317 703Q274 703 246 679.50Q218 656 204 607.50Q190 559 184.50 501Q179 443 179 358Q179 290 182 241Q185 192 194 147Q203 102 218 74Q233 46 258 30Q283 14 317 14Q359 14 387 37.50Q415 61 429.50 109.50Q444 158 449.50 216Q455 274 455 359Q455 444 449.50 502.50Q444 561 429.50 609Q415 657 387 680Q359 703 317 703M117 628Q117 628 150 678Q183 728 317 728Q451 728 517 627.50Q583 527 583 358Q583 189 517 89.50Q451-10 317-10Q183-10 117 90Q51 190 51 359Q51 528 117 628Z"  horiz-adv-x="633" vert-adv-y="1024"  />

      
      <glyph glyph-name="unid6" unicode="&#xd6;" d="M360 778Q350 778 350 788L350 899Q350 909 360 909L421 909Q431 909 431 899L431 788Q431 778 421 778L360 778M211 778Q207 778 203.50 781Q200 784 200 788L200 899Q200 903 203.50 906Q207 909 211 909L271 909Q281 909 281 899L281 788Q281 778 271 778L211 778M317 703Q274 703 246 679.50Q218 656 204 607.50Q190 559 184.50 501Q179 443 179 358Q179 290 182 241Q185 192 194 147Q203 102 218 74Q233 46 258 30Q283 14 317 14Q359 14 387 37.50Q415 61 429.50 109.50Q444 158 449.50 216Q455 274 455 359Q455 444 449.50 502.50Q444 561 429.50 609Q415 657 387 680Q359 703 317 703M117 628Q117 628 150 678Q183 728 317 728Q451 728 517 627.50Q583 527 583 358Q583 189 517 89.50Q451-10 317-10Q183-10 117 90Q51 190 51 359Q51 528 117 628Z"  horiz-adv-x="633" vert-adv-y="1024"  />

      
      <glyph glyph-name="unid8" unicode="&#xd8;" d="M529 717L583 717L520 624Q583 527 583 358Q583 189 517 89.50Q451-10 317-10Q209-10 143 58L104 0L51 0L114 94Q51 191 51 359Q51 528 117 628Q183 728 317 728Q425 728 492 659L529 717M317 703Q274 703 246 679.50Q218 656 204 607.50Q190 559 184.50 501Q179 443 179 358Q179 256 185 202L438 580Q424 641 395 672Q366 703 317 703M449 515L197 137Q211 75 239.50 44.50Q268 14 317 14Q359 14 387 37.50Q415 61 429.50 109.50Q444 158 449.50 216Q455 274 455 359Q455 461 449 515Z"  horiz-adv-x="633" vert-adv-y="1024"  />

      
      <glyph glyph-name="unid9" unicode="&#xd9;" d="M186 984L379 780L354 753L123 913L186 984M546 68.50Q546 68.50 519 29.25Q492-10 353-10Q214-10 160 68.50Q106 147 106 338L106 628Q106 673 95 683Q84 693 36 693L36 717L299 717L299 693Q250 693 239 682.50Q228 672 228 628L228 290Q228 236 230 201Q232 166 239 127Q246 88 259 65.50Q272 43 295.50 28.50Q319 14 353 14Q387 14 410.50 28.50Q434 43 447 65.50Q460 88 467 127Q474 166 476 201Q478 236 478 290L478 628Q478 673 467 683Q456 693 408 693L408 717L671 717L671 693Q622 693 611 682.50Q600 672 600 628L600 338Q600 147 546 68.50Z"  horiz-adv-x="731" vert-adv-y="1024"  />

      
      <glyph glyph-name="unida" unicode="&#xda;" d="M526 984L590 913L359 753L334 780L526 984M546 68.50Q546 68.50 519 29.25Q492-10 353-10Q214-10 160 68.50Q106 147 106 338L106 628Q106 673 95 683Q84 693 36 693L36 717L299 717L299 693Q250 693 239 682.50Q228 672 228 628L228 290Q228 236 230 201Q232 166 239 127Q246 88 259 65.50Q272 43 295.50 28.50Q319 14 353 14Q387 14 410.50 28.50Q434 43 447 65.50Q460 88 467 127Q474 166 476 201Q478 236 478 290L478 628Q478 673 467 683Q456 693 408 693L408 717L671 717L671 693Q622 693 611 682.50Q600 672 600 628L600 338Q600 147 546 68.50Z"  horiz-adv-x="731" vert-adv-y="1024"  />

      
      <glyph glyph-name="unidb" unicode="&#xdb;" d="M356 952L516 781L492 754L356 848L220 754L195 781L356 952M546 68.50Q546 68.50 519 29.25Q492-10 353-10Q214-10 160 68.50Q106 147 106 338L106 628Q106 673 95 683Q84 693 36 693L36 717L299 717L299 693Q250 693 239 682.50Q228 672 228 628L228 290Q228 236 230 201Q232 166 239 127Q246 88 259 65.50Q272 43 295.50 28.50Q319 14 353 14Q387 14 410.50 28.50Q434 43 447 65.50Q460 88 467 127Q474 166 476 201Q478 236 478 290L478 628Q478 673 467 683Q456 693 408 693L408 717L671 717L671 693Q622 693 611 682.50Q600 672 600 628L600 338Q600 147 546 68.50Z"  horiz-adv-x="731" vert-adv-y="1024"  />

      
      <glyph glyph-name="unidc" unicode="&#xdc;" d="M399 778Q389 778 389 788L389 899Q389 909 399 909L460 909Q470 909 470 899L470 788Q470 778 460 778L399 778M250 778Q246 778 242.50 781Q239 784 239 788L239 899Q239 903 242.50 906Q246 909 250 909L310 909Q320 909 320 899L320 788Q320 778 310 778L250 778M546 68.50Q546 68.50 519 29.25Q492-10 353-10Q214-10 160 68.50Q106 147 106 338L106 628Q106 673 95 683Q84 693 36 693L36 717L299 717L299 693Q250 693 239 682.50Q228 672 228 628L228 290Q228 236 230 201Q232 166 239 127Q246 88 259 65.50Q272 43 295.50 28.50Q319 14 353 14Q387 14 410.50 28.50Q434 43 447 65.50Q460 88 467 127Q474 166 476 201Q478 236 478 290L478 628Q478 673 467 683Q456 693 408 693L408 717L671 717L671 693Q622 693 611 682.50Q600 672 600 628L600 338Q600 147 546 68.50Z"  horiz-adv-x="731" vert-adv-y="1024"  />

      
      <glyph glyph-name="unidd" unicode="&#xdd;" d="M419 984L483 913L252 753L227 780L419 984M279 39Q271 8 244.50-2Q218-12 135-12Q121-12 121 0Q121 20 127 65Q133 110 141 110L226 110Q258 110 268 114.50Q278 119 282 137L298 200L95 628Q75 669 56.50 681Q38 693-10 693L-10 717L253 717L253 693Q201 693 201 674Q201 663 217 628L341 367L425 694Q427 703 432.50 707Q438 711 465 714Q492 717 546 717Q560 717 560 705Q560 685 554 640Q548 595 540 595L475 595Q445 595 434.50 589Q424 583 420 567L279 39Z"  horiz-adv-x="620" vert-adv-y="1024"  />

      
      <glyph glyph-name="unide" unicode="&#xde;" d="M254 88Q254 44 265 34Q276 24 325 24L325 0L61 0L61 24Q110 24 121 34Q132 44 132 88L132 628Q132 672 121 682.50Q110 693 61 693L61 717L325 717L325 693Q276 693 265 682.50Q254 672 254 628L254 579Q415 579 495 527.50Q575 476 575 358Q575 240 495.50 189.50Q416 139 254 139L254 88M254 555L254 164Q352 164 393.50 202.50Q435 241 435 358Q435 475 393 515Q351 555 254 555Z"  horiz-adv-x="616" vert-adv-y="1024"  />

      
      <glyph glyph-name="unidf" unicode="&#xdf;" d="M186 0L84 0L84 480Q84 507 97 542.50Q110 578 135.50 617.50Q161 657 207 693Q253 729 310 749Q368 724 422 670L322 617Q273 675 265 689Q217 658 201.50 627.50Q186 597 186 544L186 512L521 512L369 155Q426 149 473.50 105Q521 61 521-24Q521-87 461-125Q401-163 328-163Q283-163 255-150.50Q227-138 208-138Q199-138 173.50-163.50Q148-189 136-189Q116-189 94-171Q72-153 72-131Q72-118 95.50-98.50Q119-79 139-79Q196-79 241-108Q286-137 334-137Q356-137 387.50-106Q419-75 419-22Q419 64 388 92.50Q357 121 295 121Q277 121 267.50 132Q258 143 258 152Q258 153 260 157L400 487L186 487L186 0Z"  horiz-adv-x="588" vert-adv-y="1024"  />

      
      <glyph glyph-name="unie0" unicode="&#xe0;" d="M107 815L300 611L275 584L44 744L107 815M341 495L428 0L324 0L312 62Q252-10 156-10Q99-10 74.50 25Q50 60 50 104Q50 233 253 403L233 512L317 512Q338 512 341 495M305 106L257 376Q146 283 146 179Q146 140 166 103.50Q186 67 227 67Q277 67 305 106Z"  horiz-adv-x="473" vert-adv-y="1024"  />

      
      <glyph glyph-name="unie1" unicode="&#xe1;" d="M443 815L507 744L276 584L251 611L443 815M341 495L428 0L324 0L312 62Q252-10 156-10Q99-10 74.50 25Q50 60 50 104Q50 233 253 403L233 512L317 512Q338 512 341 495M305 106L257 376Q146 283 146 179Q146 140 166 103.50Q186 67 227 67Q277 67 305 106Z"  horiz-adv-x="473" vert-adv-y="1024"  />

      
      <glyph glyph-name="unie2" unicode="&#xe2;" d="M276 782L436 611L412 584L276 678L140 584L115 611L276 782M341 495L428 0L324 0L312 62Q252-10 156-10Q99-10 74.50 25Q50 60 50 104Q50 233 253 403L233 512L317 512Q338 512 341 495M305 106L257 376Q146 283 146 179Q146 140 166 103.50Q186 67 227 67Q277 67 305 106Z"  horiz-adv-x="473" vert-adv-y="1024"  />

      
      <glyph glyph-name="unie3" unicode="&#xe3;" d="M381 585Q347 585 290.50 607Q234 629 205 629L195 628Q176 583 152 583Q141 583 129 591.50Q117 600 117 618Q117 629 120 638.50Q123 648 136 657.50Q149 667 170 667Q204 667 260.50 645Q317 623 346 623L356 624Q375 669 399 669Q406 669 413 666.50Q420 664 427 656Q434 648 434 635Q434 624 431 614Q428 604 415 594.50Q402 585 381 585M341 495L428 0L324 0L312 62Q252-10 156-10Q99-10 74.50 25Q50 60 50 104Q50 233 253 403L233 512L317 512Q338 512 341 495M305 106L257 376Q146 283 146 179Q146 140 166 103.50Q186 67 227 67Q277 67 305 106Z"  horiz-adv-x="473" vert-adv-y="1024"  />

      
      <glyph glyph-name="unie4" unicode="&#xe4;" d="M319 583Q309 583 309 593L309 704Q309 714 319 714L380 714Q390 714 390 704L390 593Q390 583 380 583L319 583M170 583Q166 583 162.50 586Q159 589 159 593L159 704Q159 708 162.50 711Q166 714 170 714L230 714Q240 714 240 704L240 593Q240 583 230 583L170 583M341 495L428 0L324 0L312 62Q252-10 156-10Q99-10 74.50 25Q50 60 50 104Q50 233 253 403L233 512L317 512Q338 512 341 495M305 106L257 376Q146 283 146 179Q146 140 166 103.50Q186 67 227 67Q277 67 305 106Z"  horiz-adv-x="473" vert-adv-y="1024"  />

      
      <glyph glyph-name="unie5" unicode="&#xe5;" d="M229.50 656Q229.50 656 220.25 646.50Q211 637 211 610Q211 583 229.50 564.50Q248 546 275 546Q302 546 321 564.50Q340 583 340 610Q340 637 321 656Q302 675 275 675Q248 675 229.50 656M207.50 542.50Q207.50 542.50 193.25 556.75Q179 571 179 610Q179 649 207.50 677.50Q236 706 275 706Q314 706 342.50 677.50Q371 649 371 610Q371 571 342.50 542.50Q314 514 275 514Q236 514 207.50 542.50M341 495L428 0L324 0L312 62Q252-10 156-10Q99-10 74.50 25Q50 60 50 104Q50 233 253 403L233 512L317 512Q338 512 341 495M305 106L257 376Q146 283 146 179Q146 140 166 103.50Q186 67 227 67Q277 67 305 106Z"  horiz-adv-x="473" vert-adv-y="1024"  />

      
      <glyph glyph-name="unie6" unicode="&#xe6;" d="M305 106L257 376Q146 283 146 179Q146 140 166 103.50Q186 67 227 67Q277 67 305 106M343 96Q292 32 250 11Q208-10 156-10Q99-10 74.50 25Q50 60 50 104Q50 233 253 403L233 512L317 512Q338 512 341 495L353 426Q412 490 499 522Q555 498 610 443L510 391Q463 446 454 463Q407 432 391 401Q375 370 375 317Q375 301 378 286L583 286L583 261L383 261Q396 219 427.50 178Q459 137 491 103Q523 69 532 49Q583 87 595 127L651 106Q588 23 484-14Q403 23 343 96Z"  horiz-adv-x="697" vert-adv-y="1024"  />

      
      <glyph glyph-name="unie7" unicode="&#xe7;" d="M281 391Q232 449 224 463Q177 432 161 401Q145 370 145 317Q145 273 166 229.50Q187 186 213 158.50Q239 131 266.50 99.50Q294 68 303 49Q354 87 366 127L422 106Q365 31 274-7Q273-37 272-67Q315-67 339.50-86.50Q364-106 364-133Q364-204 184-204L184-184Q223-184 251.50-171Q280-158 280-135Q280-119 265-104.50Q250-90 229-90Q231-47 233-3Q160 35 106 108Q43 191 43 254Q43 292 64.50 340.50Q86 389 140 442.50Q194 496 269 522Q327 497 381 443L281 391Z"  horiz-adv-x="467" vert-adv-y="1024"  />

      
      <glyph glyph-name="unie8" unicode="&#xe8;" d="M166 815L359 611L334 584L103 744L166 815M281 391Q232 449 224 463Q177 432 161 401Q145 370 145 317Q145 301 148 286L353 286L353 261L154 261Q167 219 198.50 178Q230 137 262 103Q294 69 303 49Q354 87 366 127L422 106Q359 23 255-14Q168 24 105.50 107.50Q43 191 43 254Q43 292 64.50 340.50Q86 389 140 442.50Q194 496 269 522Q327 497 381 443L281 391Z"  horiz-adv-x="467" vert-adv-y="1024"  />

      
      <glyph glyph-name="unie9" unicode="&#xe9;" d="M351 815L415 744L184 584L159 611L351 815M281 391Q232 449 224 463Q177 432 161 401Q145 370 145 317Q145 301 148 286L353 286L353 261L154 261Q167 219 198.50 178Q230 137 262 103Q294 69 303 49Q354 87 366 127L422 106Q359 23 255-14Q168 24 105.50 107.50Q43 191 43 254Q43 292 64.50 340.50Q86 389 140 442.50Q194 496 269 522Q327 497 381 443L281 391Z"  horiz-adv-x="467" vert-adv-y="1024"  />

      
      <glyph glyph-name="uniea" unicode="&#xea;" d="M243 782L403 611L379 584L243 678L107 584L82 611L243 782M281 391Q232 449 224 463Q177 432 161 401Q145 370 145 317Q145 301 148 286L353 286L353 261L154 261Q167 219 198.50 178Q230 137 262 103Q294 69 303 49Q354 87 366 127L422 106Q359 23 255-14Q168 24 105.50 107.50Q43 191 43 254Q43 292 64.50 340.50Q86 389 140 442.50Q194 496 269 522Q327 497 381 443L281 391Z"  horiz-adv-x="467" vert-adv-y="1024"  />

      
      <glyph glyph-name="unieb" unicode="&#xeb;" d="M289 583Q279 583 279 593L279 704Q279 714 289 714L350 714Q360 714 360 704L360 593Q360 583 350 583L289 583M140 583Q136 583 132.50 586Q129 589 129 593L129 704Q129 708 132.50 711Q136 714 140 714L200 714Q210 714 210 704L210 593Q210 583 200 583L140 583M281 391Q232 449 224 463Q177 432 161 401Q145 370 145 317Q145 301 148 286L353 286L353 261L154 261Q167 219 198.50 178Q230 137 262 103Q294 69 303 49Q354 87 366 127L422 106Q359 23 255-14Q168 24 105.50 107.50Q43 191 43 254Q43 292 64.50 340.50Q86 389 140 442.50Q194 496 269 522Q327 497 381 443L281 391Z"  horiz-adv-x="467" vert-adv-y="1024"  />

      
      <glyph glyph-name="uniec" unicode="&#xec;" d="M-14 815L179 611L154 584L-77 744L-14 815M61 512L164 512L164 0L61 0L61 512Z"  horiz-adv-x="225" vert-adv-y="1024"  />

      
      <glyph glyph-name="unied" unicode="&#xed;" d="M238 815L302 744L71 584L46 611L238 815M61 512L164 512L164 0L61 0L61 512Z"  horiz-adv-x="225" vert-adv-y="1024"  />

      
      <glyph glyph-name="uniee" unicode="&#xee;" d="M113 782L273 611L249 584L113 678L-23 584L-48 611L113 782M61 512L164 512L164 0L61 0L61 512Z"  horiz-adv-x="225" vert-adv-y="1024"  />

      
      <glyph glyph-name="unief" unicode="&#xef;" d="M156 583Q146 583 146 593L146 704Q146 714 156 714L217 714Q227 714 227 704L227 593Q227 583 217 583L156 583M7 583Q3 583-0.50 586Q-4 589-4 593L-4 704Q-4 708-0.50 711Q3 714 7 714L67 714Q77 714 77 704L77 593Q77 583 67 583L7 583M61 512L164 512L164 0L61 0L61 512Z"  horiz-adv-x="278" vert-adv-y="1024"  />

      
      <glyph glyph-name="unif0" unicode="&#xf0;" d="M94 700L115 727Q179 702 246 669L371 727L381 705L272 654Q381 592 436.50 500.50Q492 409 492 258Q492 220 470.50 171.50Q449 123 394.50 69.50Q340 16 265-10Q178 28 115.50 109Q53 190 53 253Q53 348 133.50 428.50Q214 509 322 526Q283 591 227 633L118 582L108 604L204 649Q157 679 94 700M342 484Q252 474 206.50 429Q161 384 161 311Q161 268 179.50 226.50Q198 185 221 157.50Q244 130 272 98Q300 66 310 49Q357 80 373 111Q389 142 389 195Q389 372 342 484Z"  horiz-adv-x="562" vert-adv-y="1024"  />

      
      <glyph glyph-name="unif1" unicode="&#xf1;" d="M357 585Q323 585 266.50 607Q210 629 181 629L171 628Q152 583 128 583Q117 583 105 591.50Q93 600 93 618Q93 629 96 638.50Q99 648 112 657.50Q125 667 146 667Q180 667 236.50 645Q293 623 322 623L332 624Q351 669 375 669Q382 669 389 666.50Q396 664 403 656Q410 648 410 635Q410 624 407 614Q404 604 391 594.50Q378 585 357 585M164 0L61 0L61 512L164 512L164 358L338 237L338 512L440 512L440 0L338 0L338 197L164 318L164 0Z"  horiz-adv-x="501" vert-adv-y="1024"  />

      
      <glyph glyph-name="unif2" unicode="&#xf2;" d="M144 815L337 611L312 584L81 744L144 815M315 49Q358 81 372 112Q386 143 386 196Q386 239 367.50 281.50Q349 324 326 352Q303 380 275 413Q247 446 237 463Q190 432 174 401Q158 370 158 317Q158 273 179 229.50Q200 186 225.50 158.50Q251 131 278.50 99.50Q306 68 315 49M282 522Q369 484 431.50 400.50Q494 317 494 254Q494 216 472.50 167.50Q451 119 396.50 65.50Q342 12 267-14Q180 24 117.50 107.50Q55 191 55 254Q55 292 76.50 340.50Q98 389 152.50 442.50Q207 496 282 522Z"  horiz-adv-x="552" vert-adv-y="1024"  />

      
      <glyph glyph-name="unif3" unicode="&#xf3;" d="M418 815L482 744L251 584L226 611L418 815M315 49Q358 81 372 112Q386 143 386 196Q386 239 367.50 281.50Q349 324 326 352Q303 380 275 413Q247 446 237 463Q190 432 174 401Q158 370 158 317Q158 273 179 229.50Q200 186 225.50 158.50Q251 131 278.50 99.50Q306 68 315 49M282 522Q369 484 431.50 400.50Q494 317 494 254Q494 216 472.50 167.50Q451 119 396.50 65.50Q342 12 267-14Q180 24 117.50 107.50Q55 191 55 254Q55 292 76.50 340.50Q98 389 152.50 442.50Q207 496 282 522Z"  horiz-adv-x="552" vert-adv-y="1024"  />

      
      <glyph glyph-name="unif4" unicode="&#xf4;" d="M282 782L442 611L418 584L282 678L146 584L121 611L282 782M315 49Q358 81 372 112Q386 143 386 196Q386 239 367.50 281.50Q349 324 326 352Q303 380 275 413Q247 446 237 463Q190 432 174 401Q158 370 158 317Q158 273 179 229.50Q200 186 225.50 158.50Q251 131 278.50 99.50Q306 68 315 49M282 522Q369 484 431.50 400.50Q494 317 494 254Q494 216 472.50 167.50Q451 119 396.50 65.50Q342 12 267-14Q180 24 117.50 107.50Q55 191 55 254Q55 292 76.50 340.50Q98 389 152.50 442.50Q207 496 282 522Z"  horiz-adv-x="552" vert-adv-y="1024"  />

      
      <glyph glyph-name="unif5" unicode="&#xf5;" d="M387 585Q353 585 296.50 607Q240 629 211 629L201 628Q182 583 158 583Q147 583 135 591.50Q123 600 123 618Q123 629 126 638.50Q129 648 142 657.50Q155 667 176 667Q210 667 266.50 645Q323 623 352 623L362 624Q381 669 405 669Q412 669 419 666.50Q426 664 433 656Q440 648 440 635Q440 624 437 614Q434 604 421 594.50Q408 585 387 585M315 49Q358 81 372 112Q386 143 386 196Q386 239 367.50 281.50Q349 324 326 352Q303 380 275 413Q247 446 237 463Q190 432 174 401Q158 370 158 317Q158 273 179 229.50Q200 186 225.50 158.50Q251 131 278.50 99.50Q306 68 315 49M282 522Q369 484 431.50 400.50Q494 317 494 254Q494 216 472.50 167.50Q451 119 396.50 65.50Q342 12 267-14Q180 24 117.50 107.50Q55 191 55 254Q55 292 76.50 340.50Q98 389 152.50 442.50Q207 496 282 522Z"  horiz-adv-x="552" vert-adv-y="1024"  />

      
      <glyph glyph-name="unif6" unicode="&#xf6;" d="M325 583Q315 583 315 593L315 704Q315 714 325 714L386 714Q396 714 396 704L396 593Q396 583 386 583L325 583M176 583Q172 583 168.50 586Q165 589 165 593L165 704Q165 708 168.50 711Q172 714 176 714L236 714Q246 714 246 704L246 593Q246 583 236 583L176 583M315 49Q358 81 372 112Q386 143 386 196Q386 239 367.50 281.50Q349 324 326 352Q303 380 275 413Q247 446 237 463Q190 432 174 401Q158 370 158 317Q158 273 179 229.50Q200 186 225.50 158.50Q251 131 278.50 99.50Q306 68 315 49M282 522Q369 484 431.50 400.50Q494 317 494 254Q494 216 472.50 167.50Q451 119 396.50 65.50Q342 12 267-14Q180 24 117.50 107.50Q55 191 55 254Q55 292 76.50 340.50Q98 389 152.50 442.50Q207 496 282 522Z"  horiz-adv-x="552" vert-adv-y="1024"  />

      
      <glyph glyph-name="unif8" unicode="&#xf8;" d="M383 628L436 628L373 463Q427 417 460.50 357.50Q494 298 494 254Q494 216 472.50 167.50Q451 119 396.50 65.50Q342 12 267-14Q241-3 203 24L160-89L106-89L163 57Q114 103 84.50 158Q55 213 55 254Q55 292 76.50 340.50Q98 389 152.50 442.50Q207 496 282 522Q302 514 332 495L383 628M315 49Q358 81 372 112Q386 143 386 196Q386 271 329 348L246 135Q251 129 263 116.50Q275 104 280.50 97.50Q286 91 294 81.50Q302 72 307 64Q312 56 315 49M210 179L292 392Q247 445 237 463Q190 432 174 401Q158 370 158 317Q158 249 210 179Z"  horiz-adv-x="552" vert-adv-y="1024"  />

      
      <glyph glyph-name="unif9" unicode="&#xf9;" d="M140 815L333 611L308 584L77 744L140 815M51 340Q51 373 56.50 403Q62 433 70 452Q78 471 86 486Q94 500 100 506L106 512L205 512Q199 504 190.50 489.50Q182 475 168 430.50Q154 386 154 342Q154 222 195 138.50Q236 55 307 55Q375 55 405.50 122Q436 189 436 297Q436 343 419 380Q402 417 385.50 448Q369 479 369 512L469 512Q494 471 494 416Q494 320 482 245Q470 170 450 123Q430 76 402.50 45.50Q375 15 346 2.50Q317-10 285-10Q245-10 204.50 12Q164 34 129 75.50Q94 117 72.50 186Q51 255 51 340Z"  horiz-adv-x="549" vert-adv-y="1024"  />

      
      <glyph glyph-name="unifa" unicode="&#xfa;" d="M435 815L499 744L268 584L243 611L435 815M51 340Q51 373 56.50 403Q62 433 70 452Q78 471 86 486Q94 500 100 506L106 512L205 512Q199 504 190.50 489.50Q182 475 168 430.50Q154 386 154 342Q154 222 195 138.50Q236 55 307 55Q375 55 405.50 122Q436 189 436 297Q436 343 419 380Q402 417 385.50 448Q369 479 369 512L469 512Q494 471 494 416Q494 320 482 245Q470 170 450 123Q430 76 402.50 45.50Q375 15 346 2.50Q317-10 285-10Q245-10 204.50 12Q164 34 129 75.50Q94 117 72.50 186Q51 255 51 340Z"  horiz-adv-x="549" vert-adv-y="1024"  />

      
      <glyph glyph-name="unifb" unicode="&#xfb;" d="M288 782L448 611L424 584L288 678L152 584L127 611L288 782M51 340Q51 373 56.50 403Q62 433 70 452Q78 471 86 486Q94 500 100 506L106 512L205 512Q199 504 190.50 489.50Q182 475 168 430.50Q154 386 154 342Q154 222 195 138.50Q236 55 307 55Q375 55 405.50 122Q436 189 436 297Q436 343 419 380Q402 417 385.50 448Q369 479 369 512L469 512Q494 471 494 416Q494 320 482 245Q470 170 450 123Q430 76 402.50 45.50Q375 15 346 2.50Q317-10 285-10Q245-10 204.50 12Q164 34 129 75.50Q94 117 72.50 186Q51 255 51 340Z"  horiz-adv-x="549" vert-adv-y="1024"  />

      
      <glyph glyph-name="unifc" unicode="&#xfc;" d="M332 583Q322 583 322 593L322 704Q322 714 332 714L393 714Q403 714 403 704L403 593Q403 583 393 583L332 583M183 583Q179 583 175.50 586Q172 589 172 593L172 704Q172 708 175.50 711Q179 714 183 714L243 714Q253 714 253 704L253 593Q253 583 243 583L183 583M51 340Q51 373 56.50 403Q62 433 70 452Q78 471 86 486Q94 500 100 506L106 512L205 512Q199 504 190.50 489.50Q182 475 168 430.50Q154 386 154 342Q154 222 195 138.50Q236 55 307 55Q375 55 405.50 122Q436 189 436 297Q436 343 419 380Q402 417 385.50 448Q369 479 369 512L469 512Q494 471 494 416Q494 320 482 245Q470 170 450 123Q430 76 402.50 45.50Q375 15 346 2.50Q317-10 285-10Q245-10 204.50 12Q164 34 129 75.50Q94 117 72.50 186Q51 255 51 340Z"  horiz-adv-x="549" vert-adv-y="1024"  />

      
      <glyph glyph-name="unifd" unicode="&#xfd;" d="M453 815L517 744L286 584L261 611L453 815M362-45Q362-122 377-165Q392-208 392-221Q392-232 386.50-239Q381-246 373-246Q336-246 336-41L336 0L231 0L48 487Q45 496 45 502Q45 513 61 513L117 513Q135 513 142 508.50Q149 504 154 489L325 32L337 32Q342 212 366 332Q390 452 414 490Q427 512 510 513Q523 513 523 501Q523 481 517 436Q511 391 503 391L472 391Q441 391 429 384.50Q417 378 408 358Q399 339 389.50 301Q380 263 371 170Q362 77 362-45Z"  horiz-adv-x="568" vert-adv-y="1024"  />

      
      <glyph glyph-name="unife" unicode="&#xfe;" d="M49 717L152 717L152 449Q207 499 275 522Q362 484 424.50 400.50Q487 317 487 254Q487 216 462 171Q437 126 394.50 86Q352 46 287.50 18.50Q223-9 152-10L152-203L49-203L49 717M152 18Q259 23 319.50 75Q380 127 380 196Q380 239 361 281.50Q342 324 319.50 352Q297 380 268.50 413Q240 446 230 463Q183 432 167.50 401.50Q152 371 152 317L152 18Z"  horiz-adv-x="530" vert-adv-y="1024"  />

      
      <glyph glyph-name="uniff" unicode="&#xff;" d="M330 583Q320 583 320 593L320 704Q320 714 330 714L391 714Q401 714 401 704L401 593Q401 583 391 583L330 583M181 583Q177 583 173.50 586Q170 589 170 593L170 704Q170 708 173.50 711Q177 714 181 714L241 714Q251 714 251 704L251 593Q251 583 241 583L181 583M362-45Q362-122 377-165Q392-208 392-221Q392-232 386.50-239Q381-246 373-246Q336-246 336-41L336 0L231 0L48 487Q45 496 45 502Q45 513 61 513L117 513Q135 513 142 508.50Q149 504 154 489L325 32L337 32Q342 212 366 332Q390 452 414 490Q427 512 510 513Q523 513 523 501Q523 481 517 436Q511 391 503 391L472 391Q441 391 429 384.50Q417 378 408 358Q399 339 389.50 301Q380 263 371 170Q362 77 362-45Z"  horiz-adv-x="568" vert-adv-y="1024"  />

      
      <glyph glyph-name="uni0100" unicode="&#x0100;" d="M197 819L491 819L491 764L197 764L197 819M529 88Q529 44 540 34Q551 24 600 24L600 0L337 0L337 24Q386 24 397 34Q408 44 408 88L408 377Q329 262 227 262Q266 236 266 189Q266 133 214 110L214 102Q214 58 233 41Q252 24 297 24L297 0L61 0L61 24Q106 24 124.50 41Q143 58 143 102L143 109Q119 119 104 140.50Q89 162 89 189Q89 218 107 241.50Q125 265 152 273Q87 296 87 370Q87 421 122.50 470.50Q158 520 215 558.50Q272 597 316.50 620.50Q361 644 406 663Q403 683 389.50 688Q376 693 337 693L337 717L600 717L600 693Q551 693 540 682.50Q529 672 529 628L529 88M408 424L408 628L408 632Q377 620 348 603.50Q319 587 283.50 560.50Q248 534 226.50 497Q205 460 205 418Q205 324 285 324Q337 324 408 424Z"  horiz-adv-x="661" vert-adv-y="1024"  />

      
      <glyph glyph-name="uni0101" unicode="&#x0101;" d="M121 659L415 659L415 604L121 604L121 659M341 495L428 0L324 0L312 62Q252-10 156-10Q99-10 74.50 25Q50 60 50 104Q50 233 253 403L233 512L317 512Q338 512 341 495M305 106L257 376Q146 283 146 179Q146 140 166 103.50Q186 67 227 67Q277 67 305 106Z"  horiz-adv-x="473" vert-adv-y="1024"  />

      
      <glyph glyph-name="uni0102" unicode="&#x0102;" d="M529 88Q529 44 540 34Q551 24 600 24L600 0L337 0L337 24Q386 24 397 34Q408 44 408 88L408 377Q329 262 227 262Q266 236 266 189Q266 133 214 110L214 102Q214 58 233 41Q252 24 297 24L297 0L61 0L61 24Q106 24 124.50 41Q143 58 143 102L143 109Q119 119 104 140.50Q89 162 89 189Q89 218 107 241.50Q125 265 152 273Q87 296 87 370Q87 421 122.50 470.50Q158 520 215 558.50Q272 597 316.50 620.50Q361 644 406 663Q403 683 389.50 688Q376 693 337 693L337 717L600 717L600 693Q551 693 540 682.50Q529 672 529 628L529 88M408 424L408 628L408 632Q377 620 348 603.50Q319 587 283.50 560.50Q248 534 226.50 497Q205 460 205 418Q205 324 285 324Q337 324 408 424Z"  horiz-adv-x="661" vert-adv-y="1024"  />

      
      <glyph glyph-name="uni0103" unicode="&#x0103;" d="M341 495L428 0L324 0L312 62Q252-10 156-10Q99-10 74.50 25Q50 60 50 104Q50 233 253 403L233 512L317 512Q338 512 341 495M305 106L257 376Q146 283 146 179Q146 140 166 103.50Q186 67 227 67Q277 67 305 106Z"  horiz-adv-x="473" vert-adv-y="1024"  />

      
      <glyph glyph-name="uni0104" unicode="&#x0104;" d="M368-199Q413-199 443-148L463-156Q458-178 446-198Q394-289 327-289Q294-289 266.50-264Q239-239 239-194Q239-154 259-123L338 0L337 0L337 24Q386 24 397 34Q408 44 408 88L408 377Q329 262 227 262Q266 236 266 189Q266 133 214 110L214 102Q214 58 233 41Q252 24 297 24L297 0L61 0L61 24Q106 24 124.50 41Q143 58 143 102L143 109Q119 119 104 140.50Q89 162 89 189Q89 218 107 241.50Q125 265 152 273Q87 296 87 370Q87 421 122.50 470.50Q158 520 215 558.50Q272 597 316.50 620.50Q361 644 406 663Q403 683 389.50 688Q376 693 337 693L337 717L600 717L600 693Q551 693 540 682.50Q529 672 529 628L529 88Q529 44 540 34Q551 24 600 24L600 0L361 0L316-75Q298-107 298-131Q298-160 319.50-179.50Q341-199 368-199M408 424L408 628L408 632Q377 620 348 603.50Q319 587 283.50 560.50Q248 534 226.50 497Q205 460 205 418Q205 324 285 324Q337 324 408 424Z"  horiz-adv-x="661" vert-adv-y="1024"  />

      
      <glyph glyph-name="uni0105" unicode="&#x0105;" d="M353-199Q398-199 428-148L448-156Q443-178 431-198Q379-289 312-289Q279-289 251.50-264Q224-239 224-194Q224-154 244-123L323 0L324 0L312 62Q252-10 156-10Q99-10 74.50 25Q50 60 50 104Q50 233 253 403L233 512L317 512Q338 512 341 495L428 0L346 0L301-75Q283-107 283-131Q283-160 304.50-179.50Q326-199 353-199M305 106L257 376Q146 283 146 179Q146 140 166 103.50Q186 67 227 67Q277 67 305 106Z"  horiz-adv-x="473" vert-adv-y="1024"  />

      
      <glyph glyph-name="uni0106" unicode="&#x0106;" d="M456 984L520 913L289 753L264 780L456 984M182 358Q182 272 187.50 214.50Q193 157 207 108.50Q221 60 249 37Q277 14 319 14Q389 14 420 59.50Q451 105 451 195Q451 239 440 249.50Q429 260 380 260L380 284L643 284L643 260Q633 260 625.50 259.50Q618 259 611.50 259Q605 259 601 257Q597 255 593.50 254Q590 253 587.50 249Q585 245 583.50 243Q582 241 580.50 234.50Q579 228 578 224.50Q577 221 575 211Q573 201 572 195Q549 87 493 38.50Q437-10 317-10Q183-10 118.50 89.50Q54 189 54 359Q54 528 118.50 628Q183 728 317 728Q438 728 494.50 679Q551 630 572 523Q581 477 586 470Q596 458 643 458L643 434L380 434L380 458Q429 458 440 468.50Q451 479 451 523Q451 613 420 658Q389 703 319 703Q277 703 249 679.50Q221 656 207 607.50Q193 559 187.50 501Q182 443 182 358Z"  horiz-adv-x="701" vert-adv-y="1024"  />

      
      <glyph glyph-name="uni0107" unicode="&#x0107;" d="M351 815L415 744L184 584L159 611L351 815M281 391Q232 449 224 463Q177 432 161 401Q145 370 145 317Q145 273 166 229.50Q187 186 213 158.50Q239 131 266.50 99.50Q294 68 303 49Q354 87 366 127L422 106Q359 23 255-14Q168 24 105.50 107.50Q43 191 43 254Q43 292 64.50 340.50Q86 389 140 442.50Q194 496 269 522Q327 497 381 443L281 391Z"  horiz-adv-x="467" vert-adv-y="1024"  />

      
      <glyph glyph-name="uni010C" unicode="&#x010C;" d="M446 777Q415 777 399.50 772.50Q384 768 378 763Q372 758 360 738Q357 732 353 727Q447 720 494 679Q551 630 572 523Q581 477 586 470Q596 458 643 458L643 434L380 434L380 458Q429 458 440 468.50Q451 479 451 523Q451 613 420 658Q389 703 319 703Q277 703 249 679.50Q221 656 207 607.50Q193 559 187.50 501Q182 443 182 358Q182 272 187.50 214.50Q193 157 207 108.50Q221 60 249 37Q277 14 319 14Q389 14 420 59.50Q451 105 451 195Q451 239 440 249.50Q429 260 380 260L380 284L643 284L643 260Q633 260 625.50 259.50Q618 259 611.50 259Q605 259 601 257Q597 255 593.50 254Q590 253 587.50 249Q585 245 583.50 243Q582 241 580.50 234.50Q579 228 578 224.50Q577 221 575 211Q573 201 572 195Q549 87 493 38.50Q437-10 317-10Q183-10 118.50 89.50Q54 189 54 359Q54 528 118 628Q181 725 308 728Q305 730 302 733Q284 748 272.50 758Q261 768 248.50 778.50Q236 789 228.50 795.50Q221 802 213.50 809Q206 816 201.50 820Q197 824 194 828Q191 832 189.50 835Q188 838 188 841Q188 851 208.50 868Q229 885 249 885Q261 885 273.50 870Q286 855 310 812Q334 769 340 759L394 868Q403 887 479 887Q492 887 492 877Q492 859 486.50 818Q481 777 474 777L446 777Z"  horiz-adv-x="701" vert-adv-y="1024"  />

      
      <glyph glyph-name="uni010D" unicode="&#x010D;" d="M379 573Q348 573 332.50 568.50Q317 564 311 559Q305 554 294 534Q288 525 282 516Q333 491 381 443L281 391Q232 449 224 463Q177 432 161 401Q145 370 145 317Q145 273 166 229.50Q187 186 213 158.50Q239 131 266.50 99.50Q294 68 303 49Q354 87 366 127L422 106Q359 23 255-14Q168 24 105.50 107.50Q43 191 43 254Q43 292 64.50 340.50Q86 389 140 442Q188 490 251 515Q243 522 235 529Q217 544 205.50 554Q194 564 181.50 574.50Q169 585 161.50 591.50Q154 598 146.50 605Q139 612 134.50 616Q130 620 127 624Q124 628 122.50 631Q121 634 121 637Q121 647 141.50 664Q162 681 182 681Q194 681 206.50 666Q219 651 243 608Q267 565 273 555L327 664Q336 683 412 683Q425 683 425 673Q425 655 419.50 614Q414 573 407 573L379 573Z"  horiz-adv-x="467" vert-adv-y="1024"  />

      
      <glyph glyph-name="uni010E" unicode="&#x010E;" d="M446 777Q415 777 399.50 772.50Q384 768 378 763Q372 758 360 738Q354 727 346 717Q492 711 557 624Q627 530 627 341Q627 171 556.50 85.50Q486 0 325 0L61 0L61 24Q110 24 121 34Q132 44 132 88L132 628Q132 672 121 682.50Q110 693 61 693L61 717L321 717Q312 725 302 733Q284 748 272.50 758Q261 768 248.50 778.50Q236 789 228.50 795.50Q221 802 213.50 809Q206 816 201.50 820Q197 824 194 828Q191 832 189.50 835Q188 838 188 841Q188 851 208.50 868Q229 885 249 885Q261 885 273.50 870Q286 855 310 812Q334 769 340 759L394 868Q403 887 479 887Q492 887 492 877Q492 859 486.50 818Q481 777 474 777L446 777M254 628L254 88Q254 44 265 34.50Q276 25 325 25Q403 25 451 113.50Q499 202 499 341Q499 510 452 601Q405 692 325 692Q276 692 265 682Q254 672 254 628Z"  horiz-adv-x="693" vert-adv-y="1024"  />

      
      <glyph glyph-name="uni010F" unicode="&#x010F;" d="M584 766Q584 716 566 668Q548 620 534 600Q520 580 509 569L485 569Q507 618 507 660Q507 672 495 712Q483 752 483 786Q483 790 486 793.50Q489 797 493 797L574 797Q578 797 581 793.50Q584 790 584 786L584 766M321 522Q317 552 317 574Q317 603 328.50 629Q340 655 357 672Q374 689 391 702Q408 715 420 721L431 727L460 686Q456 683 450 676.50Q444 670 434 647Q424 624 424 598Q424 536 434.50 494Q445 452 458 431.50Q471 411 481.50 367Q492 323 492 258Q492 220 470.50 171.50Q449 123 394.50 69.50Q340 16 265-10Q178 28 115.50 109Q53 190 53 253Q53 304 87 364Q121 424 185 470.50Q249 517 321 522M329 478Q161 465 161 311Q161 268 179.50 226.50Q198 185 221 157.50Q244 130 272 98Q300 66 310 49Q357 80 373 111Q389 142 389 195Q389 264 379.50 313Q370 362 352 409.50Q334 457 329 478Z"  horiz-adv-x="594" vert-adv-y="1024"  />

      
      <glyph glyph-name="uni0110" unicode="&#x0110;" d="M325 717Q487 717 557 623.50Q627 530 627 341Q627 171 556.50 85.50Q486 0 325 0L61 0L61 24Q110 24 121 34Q132 44 132 88L132 340L61 340L61 375L132 375L132 628Q132 672 121 682.50Q110 693 61 693L61 717L325 717M254 340L254 88Q254 44 265 34.50Q276 25 325 25Q403 25 451 113.50Q499 202 499 341Q499 510 452 601Q405 692 325 692Q276 692 265 682Q254 672 254 628L254 375L332 375L332 340L254 340Z"  horiz-adv-x="693" vert-adv-y="1024"  />

      
      <glyph glyph-name="uni0111" unicode="&#x0111;" d="M329 478Q161 465 161 311Q161 268 179.50 226.50Q198 185 221 157.50Q244 130 272 98Q300 66 310 49Q357 80 373 111Q389 142 389 195Q389 264 379.50 313Q370 362 352 409.50Q334 457 329 478M321 522Q317 552 317 574Q317 576 317 577L198 577L198 618L324 618Q326 624 328 629Q340 655 357 672Q374 689 391 702Q408 715 420 721L431 727L460 686Q456 683 450 676.50Q444 670 434 647Q428 633 426 618L492 618L492 577L424 577Q426 529 434 494Q445 452 458 431.50Q471 411 481.50 367Q492 323 492 258Q492 220 470.50 171.50Q449 123 394.50 69.50Q340 16 265-10Q178 28 115.50 109Q53 190 53 253Q53 304 87 364Q121 424 185 470.50Q249 517 321 522Z"  horiz-adv-x="562" vert-adv-y="1024"  />

      
      <glyph glyph-name="uni0112" unicode="&#x0112;" d="M197 819L491 819L491 764L197 764L197 819M574 128Q558 98 550 84Q542 70 522.50 48Q503 26 481.50 16Q460 6 423.50-2Q387-10 339-10Q204-10 135 90.50Q66 191 66 359Q66 526 135 627Q204 728 339 728Q387 728 423.50 720Q460 712 482 701.50Q504 691 523 670Q542 649 551 633.50Q560 618 575 589Q597 545 654 545L654 521L391 521L391 545Q441 545 456.50 556Q472 567 472 589Q472 631 438.50 667Q405 703 341 703Q267 703 233.50 631Q200 559 195 422Q254 470 332 470Q437 470 483 450.50Q529 431 555 377Q562 361 565.50 355.50Q569 350 579 336Q589 322 604 316Q619 310 639 310L639 287L376 287L376 310Q414 310 433.50 317Q453 324 457 332.50Q461 341 461 357Q461 385 432 414Q403 443 334 443Q256 443 194 383L194 358Q194 188 226.50 101Q259 14 341 14Q405 14 438.50 50Q472 86 472 128Q472 151 456.50 162Q441 173 391 173L391 197L654 197L654 173Q596 173 574 128Z"  horiz-adv-x="720" vert-adv-y="1024"  />

      
      <glyph glyph-name="uni0113" unicode="&#x0113;" d="M108 659L402 659L402 604L108 604L108 659M281 391Q232 449 224 463Q177 432 161 401Q145 370 145 317Q145 301 148 286L353 286L353 261L154 261Q167 219 198.50 178Q230 137 262 103Q294 69 303 49Q354 87 366 127L422 106Q359 23 255-14Q168 24 105.50 107.50Q43 191 43 254Q43 292 64.50 340.50Q86 389 140 442.50Q194 496 269 522Q327 497 381 443L281 391Z"  horiz-adv-x="467" vert-adv-y="1024"  />

      
      <glyph glyph-name="uni0116" unicode="&#x0116;" d="M574 128Q558 98 550 84Q542 70 522.50 48Q503 26 481.50 16Q460 6 423.50-2Q387-10 339-10Q204-10 135 90.50Q66 191 66 359Q66 526 135 627Q204 728 339 728Q387 728 423.50 720Q460 712 482 701.50Q504 691 523 670Q542 649 551 633.50Q560 618 575 589Q597 545 654 545L654 521L391 521L391 545Q441 545 456.50 556Q472 567 472 589Q472 631 438.50 667Q405 703 341 703Q267 703 233.50 631Q200 559 195 422Q254 470 332 470Q437 470 483 450.50Q529 431 555 377Q562 361 565.50 355.50Q569 350 579 336Q589 322 604 316Q619 310 639 310L639 287L376 287L376 310Q414 310 433.50 317Q453 324 457 332.50Q461 341 461 357Q461 385 432 414Q403 443 334 443Q256 443 194 383L194 358Q194 188 226.50 101Q259 14 341 14Q405 14 438.50 50Q472 86 472 128Q472 151 456.50 162Q441 173 391 173L391 197L654 197L654 173Q596 173 574 128Z"  horiz-adv-x="720" vert-adv-y="1024"  />

      
      <glyph glyph-name="uni0117" unicode="&#x0117;" d="M221 584Q211 584 211 594L211 704Q211 708 214 711.50Q217 715 221 715L282 715Q286 715 289 711.50Q292 708 292 704L292 594Q292 584 282 584L221 584M281 391Q232 449 224 463Q177 432 161 401Q145 370 145 317Q145 301 148 286L353 286L353 261L154 261Q167 219 198.50 178Q230 137 262 103Q294 69 303 49Q354 87 366 127L422 106Q359 23 255-14Q168 24 105.50 107.50Q43 191 43 254Q43 292 64.50 340.50Q86 389 140 442.50Q194 496 269 522Q327 497 381 443L281 391Z"  horiz-adv-x="467" vert-adv-y="1024"  />

      
      <glyph glyph-name="uni0118" unicode="&#x0118;" d="M353-199Q398-199 428-148L448-156Q443-178 431-198Q379-289 312-289Q279-289 251.50-264Q224-239 224-194Q224-154 244-123L317-9Q198-2 135 90Q66 191 66 359Q66 526 135 627Q204 728 339 728Q387 728 423.50 720Q460 712 482 701.50Q504 691 523 670Q542 649 551 633.50Q560 618 575 589Q597 545 654 545L654 521L391 521L391 545Q441 545 456.50 556Q472 567 472 589Q472 631 438.50 667Q405 703 341 703Q267 703 233.50 631Q200 559 195 422Q254 470 332 470Q437 470 483 450.50Q529 431 555 377Q562 361 565.50 355.50Q569 350 579 336Q589 322 604 316Q619 310 639 310L639 287L376 287L376 310Q414 310 433.50 317Q453 324 457 332.50Q461 341 461 357Q461 385 432 414Q403 443 334 443Q256 443 194 383L194 358Q194 188 226.50 101Q259 14 341 14Q405 14 438.50 50Q472 86 472 128Q472 151 456.50 162Q441 173 391 173L391 197L654 197L654 173Q596 173 574 128Q558 98 550 84Q542 70 522.50 48Q503 26 481.50 16Q460 6 424-2Q387-10 340-10L301-75Q283-107 283-131Q283-160 304.50-179.50Q326-199 353-199Z"  horiz-adv-x="720" vert-adv-y="1024"  />

      
      <glyph glyph-name="uni0119" unicode="&#x0119;" d="M280-199Q325-199 355-148L375-156Q370-178 358-198Q306-289 239-289Q206-289 178.50-264Q151-239 151-194Q151-154 171-123L244-9Q164 29 106 108Q43 191 43 254Q43 292 64.50 340.50Q86 389 140 442.50Q194 496 269 522Q327 497 381 443L281 391Q232 449 224 463Q177 432 161 401Q145 370 145 317Q145 301 148 286L353 286L353 261L154 261Q167 219 198.50 178Q230 137 262 103Q294 69 303 49Q354 87 366 127L422 106Q363 28 267-9L228-75Q210-107 210-131Q210-160 231.50-179.50Q253-199 280-199Z"  horiz-adv-x="467" vert-adv-y="1024"  />

      
      <glyph glyph-name="uni011A" unicode="&#x011A;" d="M446 777Q415 777 399.50 772.50Q384 768 378 763Q372 758 360 738Q357 733 354 728Q393 727 424 720Q460 712 482 701.50Q504 691 523 670Q542 649 551 633.50Q560 618 575 589Q597 545 654 545L654 521L391 521L391 545Q441 545 456.50 556Q472 567 472 589Q472 631 438.50 667Q405 703 341 703Q267 703 233.50 631Q200 559 195 422Q254 470 332 470Q437 470 483 450.50Q529 431 555 377Q562 361 565.50 355.50Q569 350 579 336Q589 322 604 316Q619 310 639 310L639 287L376 287L376 310Q414 310 433.50 317Q453 324 457 332.50Q461 341 461 357Q461 385 432 414Q403 443 334 443Q256 443 194 383L194 358Q194 188 226.50 101Q259 14 341 14Q405 14 438.50 50Q472 86 472 128Q472 151 456.50 162Q441 173 391 173L391 197L654 197L654 173Q596 173 574 128Q558 98 550 84Q542 70 522.50 48Q503 26 481.50 16Q460 6 423.50-2Q387-10 339-10Q204-10 135 90.50Q66 191 66 359Q66 526 135 627Q196 717 310 727Q306 730 302 733Q284 748 272.50 758Q261 768 248.50 778.50Q236 789 228.50 795.50Q221 802 213.50 809Q206 816 201.50 820Q197 824 194 828Q191 832 189.50 835Q188 838 188 841Q188 851 208.50 868Q229 885 249 885Q261 885 273.50 870Q286 855 310 812Q334 769 340 759L394 868Q403 887 479 887Q492 887 492 877Q492 859 486.50 818Q481 777 474 777L446 777Z"  horiz-adv-x="720" vert-adv-y="1024"  />

      
      </font>
</defs>
</svg>
