<svg width="15" height="15" xmlns="http://www.w3.org/2000/svg"><g fill="none" fill-rule="evenodd"><path fill="#FCF8F2" d="M-309-705h1440v2535H-309z"/><g fill-rule="nonzero"><path d="M14.136 14.96a.824.824 0 0 0 .824-.824V.858a.824.824 0 0 0-.824-.824H.858a.824.824 0 0 0-.824.824v13.278c0 .455.369.824.824.824h13.278z" fill="#3C5A99"/><path d="M10.333 14.96V9.18h1.94l.29-2.253h-2.23V5.49c0-.652.18-1.097 1.116-1.097h1.193V2.377a15.945 15.945 0 0 0-1.738-.089c-1.72 0-2.898 1.05-2.898 2.978v1.661H6.061V9.18h1.945v5.78h2.327z" fill="#FFF"/></g></g></svg>