<svg width="15" height="15" xmlns="http://www.w3.org/2000/svg"><defs><radialGradient cx="26.563%" cy="107.702%" fx="26.563%" fy="107.702%" r="50.004%" gradientTransform="scale(.99973 1)" id="a"><stop stop-color="#FD5" offset="0%"/><stop stop-color="#FD5" offset="10%"/><stop stop-color="#FF543E" offset="50%"/><stop stop-color="#C837AB" offset="100%"/></radialGradient><radialGradient cx="-16.751%" cy="7.204%" fx="-16.751%" fy="7.204%" r="50.004%" gradientTransform="scale(.99973 1)" id="b"><stop stop-color="#3771C8" offset="0%"/><stop stop-color="#3771C8" offset="12.8%"/><stop stop-color="#60F" stop-opacity="0" offset="100%"/></radialGradient></defs><g fill="none" fill-rule="evenodd"><path fill="#FCF8F2" d="M-150-999h1440v2535H-150z"/><g fill-rule="nonzero"><path d="M7.447 0C4.339 0 3.43.003 3.253.018 2.615.07 2.22.17 1.786.387a2.972 2.972 0 0 0-.855.626c-.473.49-.759 1.093-.862 1.81-.05.348-.065.42-.068 2.197-.002.593 0 1.373 0 2.42 0 3.105.003 4.013.018 4.189.051.62.149 1.011.355 1.438a3.136 3.136 0 0 0 2.032 1.66c.307.08.646.123 1.081.143.185.009 2.064.014 3.944.014s3.76-.002 3.94-.011c.504-.024.796-.063 1.12-.147a3.117 3.117 0 0 0 2.032-1.664c.202-.416.305-.822.351-1.41.01-.128.014-2.173.014-4.215s-.004-4.083-.014-4.211c-.047-.598-.15-1-.358-1.425a2.95 2.95 0 0 0-.638-.873c-.492-.47-1.094-.756-1.812-.86C11.718.018 11.649.003 9.87 0H7.447z" fill="url(#a)"/><path d="M7.447 0C4.339 0 3.43.003 3.253.018 2.615.07 2.22.17 1.786.387a2.972 2.972 0 0 0-.855.626c-.473.49-.759 1.093-.862 1.81-.05.348-.065.42-.068 2.197-.002.593 0 1.373 0 2.42 0 3.105.003 4.013.018 4.189.051.62.149 1.011.355 1.438a3.136 3.136 0 0 0 2.032 1.66c.307.08.646.123 1.081.143.185.009 2.064.014 3.944.014s3.76-.002 3.94-.011c.504-.024.796-.063 1.12-.147a3.117 3.117 0 0 0 2.032-1.664c.202-.416.305-.822.351-1.41.01-.128.014-2.173.014-4.215s-.004-4.083-.014-4.211c-.047-.598-.15-1-.358-1.425a2.95 2.95 0 0 0-.638-.873c-.492-.47-1.094-.756-1.812-.86C11.718.018 11.649.003 9.87 0H7.447z" fill="url(#b)"/><path d="M7.443 1.947c-1.492 0-1.68.006-2.266.033-.585.027-.985.12-1.334.255-.362.14-.668.328-.974.634a2.698 2.698 0 0 0-.634.973c-.136.35-.229.75-.255 1.334-.027.587-.033.774-.033 2.267 0 1.492.006 1.68.033 2.265.027.586.12.985.255 1.334.14.362.328.669.634.974.305.306.612.494.973.634.35.136.75.229 1.334.256.587.026.774.033 2.267.033 1.492 0 1.68-.007 2.265-.033.585-.027.985-.12 1.335-.256a2.69 2.69 0 0 0 .973-.634c.306-.305.493-.612.634-.973.135-.35.228-.75.256-1.334.026-.587.033-.774.033-2.266 0-1.493-.007-1.68-.033-2.267-.028-.585-.12-.984-.256-1.333a2.698 2.698 0 0 0-.634-.974 2.686 2.686 0 0 0-.973-.634c-.35-.136-.75-.228-1.335-.255-.587-.027-.773-.033-2.267-.033h.002zm-.493.99h.493c1.468 0 1.642.005 2.221.032.536.024.827.114 1.02.189.257.1.44.219.632.411.193.192.312.376.411.632.076.194.165.484.19 1.02.026.58.032.754.032 2.22 0 1.467-.006 1.641-.032 2.22-.025.537-.114.827-.19 1.02a1.7 1.7 0 0 1-.41.632 1.7 1.7 0 0 1-.632.411c-.194.076-.485.165-1.02.19-.58.026-.754.032-2.222.032-1.467 0-1.641-.006-2.22-.032-.537-.025-.827-.114-1.021-.19-.257-.1-.44-.218-.632-.41a1.704 1.704 0 0 1-.412-.633c-.075-.193-.165-.484-.189-1.02-.026-.58-.032-.753-.032-2.22 0-1.469.006-1.642.032-2.221.025-.536.114-.827.19-1.02.099-.257.218-.44.41-.633.193-.192.376-.311.633-.41.193-.077.484-.166 1.02-.19.507-.023.704-.03 1.728-.031v.001zm3.427.913a.66.66 0 1 0 0 1.319.66.66 0 0 0 0-1.32zm-2.934.77a2.823 2.823 0 1 0 0 5.646 2.823 2.823 0 0 0 0-5.646zm0 .99a1.832 1.832 0 1 1 0 3.665 1.832 1.832 0 0 1 0-3.664z" fill="#FFF"/></g></g></svg>