<svg xmlns="http://www.w3.org/2000/svg" xmlns:xlink="http://www.w3.org/1999/xlink" width="173" height="46"><defs><path id="a" d="M0 .166h57.797v45.807H0z"/><path id="c" d="M.1.159h27.738V24H.1z"/><path id="e" d="M.145.159h29.629v23.814H.144z"/></defs><g fill="none" fill-rule="evenodd"><path fill="#7D7D7D" d="M-149-24h1440v250H-149z"/><mask id="b" fill="#fff"><use xlink:href="#a"/></mask><path fill="#FFF" d="M43.447 8.937l-.313.874a2.863 2.863 0 0 1-2.687 1.915h-13.11l1.66-4.637h13.179c.939 0 1.592.95 1.271 1.848m8.7-8.77H11.633L8.93 7.72h4.755L0 45.973h15.086l9.466-26.46h20.38c5.017 0 9.498-3.193 11.214-7.99l1.305-3.649c1.34-3.746-1.386-7.708-5.304-7.708" mask="url(#b)"/><path fill="#FFF" d="M32.077 30.66l.49-1.435c.402-1.175 1.45-1.956 2.623-1.956h5.887c.706 0 1.197.747.956 1.454l-.662 1.936h-9.294zM47.261 22l-13.502.04c-3.35.01-6.34 2.246-7.485 5.6L20 46h6.836l3.646-10.672h9.294L36.13 46h6.835l6.868-20.1c.649-1.898-.675-3.906-2.572-3.9zm23.407 5.883l-.686 2.032c-.152.453-.552.755-1 .755H59.89l1.352-3.992h8.638c.58 0 .984.62.787 1.205M74.298 22H56.129L48 46h6.699l3.608-10.652h5.861L67.776 46h5.856l-3.608-10.652h.644c1.78 0 3.37-1.196 3.978-2.993l2.189-6.461C77.475 24 76.172 22 74.298 22M104 22h-6.766l-9.405 9.199L90.976 22H84.21L76 46h6.766l3.173-9.277h3.319L91.4 46h6.766l-3.052-13.216zm4.32 18.232L114.604 22h-6.85l-7.675 22.154c-.31.897.321 1.846 1.23 1.846h15.663L119 40.232h-10.68z"/><g transform="translate(119 22)"><mask id="d" fill="#fff"><use xlink:href="#c"/></mask><path fill="#FFF" d="M18.87 7.183l-3.486 9.758c-.243.677-.978 1.226-1.643 1.226H9.833c-.665 0-1.008-.549-.766-1.226l3.488-9.758c.242-.677.977-1.226 1.642-1.226h3.908c.665 0 1.008.549.766 1.226M26.399.16H10.456c-1.135 0-2.39.895-2.803 2L.232 22c-.413 1.105.172 2 1.307 2h15.944c1.134 0 2.389-.895 2.802-2l7.42-19.842c.414-1.104-.171-2-1.306-2" mask="url(#d)"/></g><g transform="translate(143 22)"><mask id="f" fill="#fff"><use xlink:href="#e"/></mask><path fill="#FFF" d="M29.774.159h-6.896l-4.377 12.287L15.92 1.8A2.122 2.122 0 0 0 13.87.159H8.627L.145 23.973H7.04l4.38-12.293 2.493 10.293c.284 1.175 1.316 2 2.5 2h4.88L29.773.159z" mask="url(#f)"/></g></g></svg>