<svg width="196" height="52" xmlns="http://www.w3.org/2000/svg" xmlns:xlink="http://www.w3.org/1999/xlink"><defs><path id="b" d="M0 1h1440v194H0z"/><filter x="-.4%" y="-3.1%" width="100.8%" height="106.2%" filterUnits="objectBoundingBox" id="a"><feOffset in="SourceAlpha" result="shadowOffsetOuter1"/><feGaussianBlur stdDeviation="2" in="shadowOffsetOuter1" result="shadowBlurOuter1"/><feColorMatrix values="0 0 0 0 0 0 0 0 0 0 0 0 0 0 0 0 0 0 0.5 0" in="shadowBlurOuter1"/></filter><path id="c" d="M0 .188h65.769V51.97H0z"/><path id="e" d="M.114.179h31.701V27H.114z"/><path id="g" d="M.164.179h33.58v26.79H.164z"/></defs><g fill="none" fill-rule="evenodd"><g transform="translate(-162 -60)"><use fill="#000" filter="url(#a)" xlink:href="#b"/><use fill="#FFF" xlink:href="#b"/></g><mask id="d" fill="#fff"><use xlink:href="#c"/></mask><path d="M49.44 10.102l-.356.99a3.256 3.256 0 0 1-3.058 2.163H31.109l1.887-5.241h14.997c1.069 0 1.812 1.073 1.447 2.088m9.9-9.914H13.236l-3.075 8.54h5.41L0 51.97h17.167L27.94 22.057h23.19c5.71 0 10.809-3.608 12.761-9.03L65.376 8.9C66.9 4.666 63.798.188 59.339.188" fill="#007EC1" mask="url(#d)"/><path d="M36.688 34.742l.555-1.614c.455-1.321 1.643-2.2 2.972-2.2h6.673c.8 0 1.356.84 1.083 1.635l-.75 2.179H36.688zM53.896 25l-15.303.045c-3.797.011-7.184 2.527-8.483 6.3L23 52h7.747l4.133-12.006h10.533L41.28 52h7.747l7.784-22.612c.735-2.136-.765-4.394-2.915-4.388zm25.898 6.619l-.78 2.286c-.173.509-.628.848-1.138.848H67.53l1.539-4.49h9.83c.66 0 1.12.696.894 1.356M83.925 25H63.25L54 52h7.623l4.105-11.984h6.67L76.504 52h6.663l-4.105-11.984h.733c2.025 0 3.834-1.345 4.526-3.367l2.49-7.268c.73-2.13-.753-4.381-2.886-4.381M118 25h-7.732l-10.75 10.349L103.116 25h-7.733L86 52h7.732l3.627-10.437h3.793L103.6 52h7.732l-3.488-14.868zm4.195 20.51L129.143 25h-7.573l-8.481 24.923c-.344 1.01.355 2.077 1.359 2.077h17.311L134 45.51h-11.805z" fill="#007EC1"/><g transform="translate(135 25)"><mask id="f" fill="#fff"><use xlink:href="#e"/></mask><path d="M21.567 8.081L17.58 19.058c-.277.763-1.117 1.38-1.877 1.38h-4.466c-.76 0-1.152-.617-.875-1.38l3.985-10.977c.277-.762 1.117-1.38 1.877-1.38h4.466c.76 0 1.152.618.876 1.38M30.17.18H11.949c-1.297 0-2.73 1.007-3.202 2.25L.265 24.75C-.207 25.993.462 27 1.76 27h18.22c1.297 0 2.73-1.007 3.203-2.25l8.48-22.322c.473-1.242-.196-2.25-1.492-2.25" fill="#007EC1" mask="url(#f)"/></g><g transform="translate(162 25)"><mask id="h" fill="#fff"><use xlink:href="#g"/></mask><path d="M33.744.179h-7.816l-4.96 13.823-2.925-11.978A2.401 2.401 0 0 0 15.72.179H9.777L.164 26.969h7.815l4.963-13.83 2.826 11.58a2.927 2.927 0 0 0 2.834 2.25h5.53L33.744.18z" fill="#007EC1" mask="url(#h)"/></g></g></svg>