<svg xmlns="http://www.w3.org/2000/svg" width="15" height="15"><g fill="none"><path fill="#5181B8" d="M5.2 0h4.6C14 0 15 1 15 5.2v4.6C15 14 14 15 9.8 15H5.2C1 15 0 14 0 9.8V5.2C0 1 1 0 5.2 0z"/><path fill="#FFF" d="M12.284 5.168c.07-.232 0-.402-.33-.402h-1.095a.472.472 0 0 0-.475.309s-.557 1.356-1.345 2.236c-.255.255-.37.336-.51.336-.069 0-.17-.08-.17-.312V5.168c0-.278-.08-.402-.312-.402H6.328c-.174 0-.278.129-.278.251 0 .264.394.324.434 1.066v1.61c0 .354-.063.418-.202.418-.371 0-1.273-1.362-1.808-2.92-.105-.303-.21-.425-.49-.425H2.891c-.313 0-.375.147-.375.309 0 .29.37 1.727 1.726 3.627.904 1.298 2.177 2.001 3.336 2.001.695 0 .781-.156.781-.425v-.981c0-.313.066-.375.286-.375.163 0 .44.081 1.09.707.741.741.864 1.074 1.28 1.074h1.094c.313 0 .47-.156.379-.464-.099-.308-.453-.754-.923-1.282-.254-.302-.637-.626-.753-.788-.162-.209-.116-.301 0-.487 0 0 1.333-1.877 1.472-2.514z"/></g></svg>